<svg xmlns="http://www.w3.org/2000/svg" xmlns:xlink="http://www.w3.org/1999/xlink" width="200" zoomAndPan="magnify" viewBox="0 0 150 44.999999" height="60" preserveAspectRatio="xMidYMid meet" version="1.2"><defs><clipPath id="30a72e65af"><path d="M 5.59375 5.160156 L 45.882812 5.160156 L 45.882812 37.527344 L 5.59375 37.527344 Z M 5.59375 5.160156 "/></clipPath><clipPath id="ff21b7e27d"><path d="M 5.59375 5.160156 L 45.882812 5.160156 L 45.882812 10.402344 L 5.59375 10.402344 Z M 5.59375 5.160156 "/></clipPath><clipPath id="d509f33a45"><path d="M 15.816406 15.746094 L 35.660156 15.746094 L 35.660156 25.253906 L 15.816406 25.253906 Z M 15.816406 15.746094 "/></clipPath><clipPath id="aaa957310f"><path d="M 29.0625 16.753906 L 36.664062 16.753906 L 36.664062 30.703125 L 29.0625 30.703125 Z M 29.0625 16.753906 "/></clipPath><clipPath id="88b1addbb4"><path d="M 15.816406 24.253906 L 35.660156 24.253906 L 35.660156 31.734375 L 15.816406 31.734375 Z M 15.816406 24.253906 "/></clipPath></defs><g id="bacdd5fbf9"><g clip-rule="nonzero" clip-path="url(#30a72e65af)"><path style=" stroke:none;fill-rule:nonzero;fill:#b3151d;fill-opacity:1;" d="M 45.53125 35.171875 L 45.214844 35.171875 C 45.214844 35.652344 45.019531 36.082031 44.710938 36.394531 C 44.398438 36.710938 43.972656 36.902344 43.496094 36.902344 L 7.96875 36.902344 C 7.492188 36.902344 7.066406 36.710938 6.753906 36.394531 C 6.445312 36.082031 6.253906 35.652344 6.253906 35.171875 L 6.253906 7.535156 C 6.253906 7.054688 6.445312 6.625 6.753906 6.3125 C 7.066406 5.996094 7.492188 5.804688 7.96875 5.804688 L 43.496094 5.804688 C 43.972656 5.804688 44.398438 5.996094 44.710938 6.3125 C 45.019531 6.625 45.214844 7.054688 45.214844 7.535156 L 45.214844 35.171875 L 45.847656 35.171875 L 45.847656 7.535156 C 45.847656 6.226562 44.796875 5.164062 43.496094 5.164062 L 7.96875 5.164062 C 6.671875 5.164062 5.617188 6.226562 5.617188 7.535156 L 5.617188 35.171875 C 5.617188 36.480469 6.671875 37.542969 7.96875 37.542969 L 43.496094 37.542969 C 44.796875 37.542969 45.847656 36.480469 45.847656 35.171875 L 45.53125 35.171875 "/></g><g clip-rule="nonzero" clip-path="url(#ff21b7e27d)"><path style=" stroke:none;fill-rule:nonzero;fill:#b3151d;fill-opacity:1;" d="M 45.53125 10.070312 L 45.847656 10.070312 L 45.847656 7.535156 C 45.847656 6.226562 44.796875 5.164062 43.496094 5.164062 L 7.96875 5.164062 C 6.671875 5.164062 5.617188 6.226562 5.617188 7.535156 L 5.617188 10.070312 C 5.617188 10.15625 5.652344 10.238281 5.710938 10.296875 C 5.769531 10.355469 5.851562 10.390625 5.933594 10.390625 L 45.53125 10.390625 C 45.613281 10.390625 45.695312 10.355469 45.753906 10.296875 C 45.8125 10.238281 45.847656 10.15625 45.847656 10.070312 L 45.53125 10.070312 L 45.53125 9.75 L 6.253906 9.75 L 6.253906 7.535156 C 6.253906 7.054688 6.445312 6.625 6.753906 6.3125 C 7.066406 5.996094 7.492188 5.804688 7.96875 5.804688 L 43.496094 5.804688 C 43.972656 5.804688 44.398438 5.996094 44.710938 6.3125 C 45.019531 6.625 45.214844 7.054688 45.214844 7.535156 L 45.214844 10.070312 L 45.53125 10.070312 L 45.53125 9.75 L 45.53125 10.070312 "/></g><path style=" stroke:none;fill-rule:nonzero;fill:#b3151d;fill-opacity:1;" d="M 37.050781 7.914062 L 36.734375 7.914062 C 36.734375 8.105469 36.65625 8.273438 36.535156 8.398438 C 36.410156 8.519531 36.246094 8.597656 36.054688 8.597656 C 35.867188 8.597656 35.703125 8.519531 35.578125 8.398438 C 35.457031 8.273438 35.378906 8.105469 35.378906 7.914062 C 35.378906 7.726562 35.457031 7.558594 35.578125 7.433594 C 35.703125 7.308594 35.867188 7.234375 36.054688 7.234375 C 36.246094 7.234375 36.410156 7.308594 36.535156 7.433594 C 36.65625 7.558594 36.734375 7.726562 36.734375 7.914062 L 37.367188 7.914062 C 37.367188 7.550781 37.222656 7.21875 36.984375 6.980469 C 36.746094 6.742188 36.417969 6.59375 36.054688 6.59375 C 35.695312 6.59375 35.367188 6.742188 35.128906 6.980469 C 34.890625 7.21875 34.746094 7.550781 34.746094 7.914062 C 34.746094 8.277344 34.890625 8.613281 35.128906 8.851562 C 35.367188 9.089844 35.695312 9.238281 36.054688 9.238281 C 36.417969 9.238281 36.746094 9.089844 36.984375 8.847656 C 37.222656 8.613281 37.367188 8.277344 37.367188 7.914062 L 37.050781 7.914062 "/><path style=" stroke:none;fill-rule:nonzero;fill:#b3151d;fill-opacity:1;" d="M 39.835938 7.914062 L 39.515625 7.914062 C 39.515625 8.105469 39.441406 8.273438 39.320312 8.398438 C 39.195312 8.519531 39.027344 8.597656 38.839844 8.597656 C 38.652344 8.597656 38.484375 8.519531 38.363281 8.398438 C 38.238281 8.273438 38.164062 8.105469 38.164062 7.914062 C 38.164062 7.726562 38.238281 7.558594 38.363281 7.433594 C 38.484375 7.308594 38.652344 7.234375 38.839844 7.234375 C 39.027344 7.234375 39.195312 7.308594 39.320312 7.433594 C 39.441406 7.558594 39.515625 7.726562 39.515625 7.914062 L 40.152344 7.914062 C 40.152344 7.550781 40.003906 7.21875 39.769531 6.980469 C 39.53125 6.742188 39.199219 6.59375 38.839844 6.59375 C 38.117188 6.59375 37.527344 7.183594 37.527344 7.914062 C 37.527344 8.277344 37.675781 8.613281 37.914062 8.851562 C 38.148438 9.089844 38.480469 9.238281 38.839844 9.238281 C 39.199219 9.238281 39.53125 9.089844 39.769531 8.851562 C 40.003906 8.613281 40.152344 8.277344 40.152344 7.914062 L 39.835938 7.914062 "/><path style=" stroke:none;fill-rule:nonzero;fill:#b3151d;fill-opacity:1;" d="M 42.617188 7.914062 L 42.300781 7.914062 C 42.300781 8.105469 42.226562 8.273438 42.101562 8.398438 C 41.980469 8.519531 41.8125 8.597656 41.625 8.597656 C 41.4375 8.597656 41.269531 8.519531 41.144531 8.398438 C 41.023438 8.273438 40.945312 8.105469 40.945312 7.914062 C 40.945312 7.726562 41.023438 7.558594 41.144531 7.433594 C 41.269531 7.308594 41.4375 7.234375 41.625 7.234375 C 41.8125 7.234375 41.980469 7.308594 42.101562 7.433594 C 42.226562 7.558594 42.300781 7.726562 42.300781 7.914062 L 42.933594 7.914062 C 42.9375 7.550781 42.789062 7.21875 42.550781 6.980469 C 42.316406 6.742188 41.984375 6.59375 41.625 6.59375 C 40.898438 6.59375 40.3125 7.183594 40.3125 7.914062 C 40.3125 8.644531 40.898438 9.238281 41.625 9.238281 C 41.984375 9.238281 42.316406 9.089844 42.550781 8.851562 C 42.789062 8.613281 42.9375 8.277344 42.933594 7.914062 L 42.617188 7.914062 "/><path style=" stroke:none;fill-rule:nonzero;fill:#b3151d;fill-opacity:1;" d="M 22.363281 23.730469 L 15.28125 16.785156 C 14.964844 17.21875 14.773438 17.75 14.773438 18.328125 L 14.773438 29.128906 C 14.773438 29.707031 14.964844 30.242188 15.28125 30.671875 L 22.363281 23.730469 "/><g clip-rule="nonzero" clip-path="url(#d509f33a45)"><path style=" stroke:none;fill-rule:nonzero;fill:#b3151d;fill-opacity:1;" d="M 24.464844 24.730469 C 25.171875 25.421875 26.28125 25.421875 26.988281 24.730469 L 35.632812 16.25 C 35.210938 15.933594 34.683594 15.746094 34.117188 15.746094 L 17.335938 15.746094 C 16.769531 15.746094 16.242188 15.933594 15.816406 16.25 L 24.464844 24.730469 "/></g><g clip-rule="nonzero" clip-path="url(#aaa957310f)"><path style=" stroke:none;fill-rule:nonzero;fill:#b3151d;fill-opacity:1;" d="M 36.167969 16.785156 L 29.089844 23.730469 L 36.167969 30.671875 C 36.488281 30.242188 36.679688 29.707031 36.679688 29.128906 L 36.679688 18.328125 C 36.679688 17.75 36.488281 17.21875 36.167969 16.785156 "/></g><g clip-rule="nonzero" clip-path="url(#88b1addbb4)"><path style=" stroke:none;fill-rule:nonzero;fill:#b3151d;fill-opacity:1;" d="M 28.546875 24.257812 L 27.511719 25.273438 C 27.03125 25.746094 26.398438 26.003906 25.726562 26.003906 C 25.054688 26.003906 24.421875 25.746094 23.941406 25.273438 L 22.90625 24.257812 L 15.816406 31.207031 C 16.242188 31.523438 16.769531 31.710938 17.335938 31.710938 L 34.117188 31.710938 C 34.683594 31.710938 35.210938 31.523438 35.632812 31.207031 L 28.546875 24.257812 "/></g><g style="fill:#b3151d;fill-opacity:1;"><g transform="translate(52.727722, 27.804421)"><path style="stroke:none" d="M 0.328125 0 L 0.328125 -0.15625 L 0.640625 -0.265625 C 1.003906 -0.390625 1.1875 -0.695312 1.1875 -1.1875 L 1.1875 -9.40625 C 1.1875 -9.625 1.160156 -9.796875 1.109375 -9.921875 C 1.066406 -10.054688 0.941406 -10.164062 0.734375 -10.25 L 0.328125 -10.4375 L 0.328125 -10.59375 L 3.421875 -10.59375 L 6.390625 -2.828125 L 9.1875 -10.59375 L 12.359375 -10.59375 L 12.359375 -10.4375 L 12.09375 -10.34375 C 11.894531 -10.269531 11.753906 -10.164062 11.671875 -10.03125 C 11.597656 -9.894531 11.5625 -9.722656 11.5625 -9.515625 L 11.5625 -1.109375 C 11.5625 -0.890625 11.585938 -0.722656 11.640625 -0.609375 C 11.691406 -0.492188 11.820312 -0.394531 12.03125 -0.3125 L 12.359375 -0.15625 L 12.359375 0 L 8.359375 0 L 8.359375 -0.15625 L 8.6875 -0.3125 C 8.894531 -0.394531 9.023438 -0.492188 9.078125 -0.609375 C 9.128906 -0.722656 9.15625 -0.890625 9.15625 -1.109375 L 9.15625 -4.71875 L 9.1875 -9.3125 L 5.828125 0 L 5.03125 0 L 1.53125 -9.203125 L 1.578125 -5.203125 L 1.578125 -1.15625 C 1.578125 -0.914062 1.609375 -0.722656 1.671875 -0.578125 C 1.742188 -0.441406 1.882812 -0.335938 2.09375 -0.265625 L 2.4375 -0.15625 L 2.4375 0 Z M 0.328125 0 "/></g></g><g style="fill:#b3151d;fill-opacity:1;"><g transform="translate(65.282296, 27.804421)"><path style="stroke:none" d="M 2.671875 0.234375 C 2.046875 0.234375 1.519531 0.0625 1.09375 -0.28125 C 0.675781 -0.632812 0.46875 -1.144531 0.46875 -1.8125 C 0.46875 -2.3125 0.722656 -2.773438 1.234375 -3.203125 C 1.742188 -3.628906 2.550781 -3.945312 3.65625 -4.15625 C 3.832031 -4.1875 4.023438 -4.222656 4.234375 -4.265625 C 4.453125 -4.304688 4.679688 -4.347656 4.921875 -4.390625 L 4.921875 -5.65625 C 4.921875 -6.382812 4.832031 -6.894531 4.65625 -7.1875 C 4.476562 -7.476562 4.203125 -7.625 3.828125 -7.625 C 3.566406 -7.625 3.359375 -7.539062 3.203125 -7.375 C 3.054688 -7.207031 2.960938 -6.921875 2.921875 -6.515625 L 2.890625 -6.34375 C 2.867188 -5.882812 2.753906 -5.546875 2.546875 -5.328125 C 2.347656 -5.117188 2.097656 -5.015625 1.796875 -5.015625 C 1.515625 -5.015625 1.28125 -5.097656 1.09375 -5.265625 C 0.914062 -5.441406 0.828125 -5.671875 0.828125 -5.953125 C 0.828125 -6.398438 0.976562 -6.769531 1.28125 -7.0625 C 1.59375 -7.363281 2 -7.585938 2.5 -7.734375 C 3.007812 -7.890625 3.554688 -7.96875 4.140625 -7.96875 C 5.097656 -7.96875 5.832031 -7.734375 6.34375 -7.265625 C 6.863281 -6.796875 7.125 -6.039062 7.125 -5 L 7.125 -1.453125 C 7.125 -0.960938 7.351562 -0.71875 7.8125 -0.71875 L 8.15625 -0.71875 L 8.296875 -0.59375 C 8.097656 -0.332031 7.878906 -0.132812 7.640625 0 C 7.398438 0.132812 7.0625 0.203125 6.625 0.203125 C 6.144531 0.203125 5.769531 0.09375 5.5 -0.125 C 5.226562 -0.34375 5.050781 -0.632812 4.96875 -1 C 4.644531 -0.65625 4.3125 -0.363281 3.96875 -0.125 C 3.632812 0.113281 3.203125 0.234375 2.671875 0.234375 Z M 3.640625 -0.734375 C 3.859375 -0.734375 4.0625 -0.785156 4.25 -0.890625 C 4.4375 -0.992188 4.660156 -1.148438 4.921875 -1.359375 L 4.921875 -4.0625 C 4.804688 -4.039062 4.695312 -4.019531 4.59375 -4 C 4.488281 -3.976562 4.363281 -3.957031 4.21875 -3.9375 C 3.726562 -3.8125 3.335938 -3.59375 3.046875 -3.28125 C 2.753906 -2.976562 2.609375 -2.570312 2.609375 -2.0625 C 2.609375 -1.613281 2.707031 -1.28125 2.90625 -1.0625 C 3.113281 -0.84375 3.359375 -0.734375 3.640625 -0.734375 Z M 3.640625 -0.734375 "/></g></g><g style="fill:#b3151d;fill-opacity:1;"><g transform="translate(73.45399, 27.804421)"><path style="stroke:none" d="M 0.328125 0 L 0.328125 -0.15625 L 0.5625 -0.21875 C 0.78125 -0.289062 0.925781 -0.390625 1 -0.515625 C 1.082031 -0.640625 1.125 -0.804688 1.125 -1.015625 L 1.125 -6.046875 C 1.125 -6.273438 1.082031 -6.445312 1 -6.5625 C 0.925781 -6.675781 0.78125 -6.753906 0.5625 -6.796875 L 0.328125 -6.859375 L 0.328125 -7.015625 L 3.078125 -7.953125 L 3.25 -7.796875 L 3.390625 -6.40625 L 3.390625 -6.28125 C 3.535156 -6.582031 3.726562 -6.859375 3.96875 -7.109375 C 4.21875 -7.359375 4.488281 -7.5625 4.78125 -7.71875 C 5.070312 -7.882812 5.363281 -7.96875 5.65625 -7.96875 C 6.0625 -7.96875 6.367188 -7.851562 6.578125 -7.625 C 6.796875 -7.40625 6.90625 -7.125 6.90625 -6.78125 C 6.90625 -6.414062 6.800781 -6.132812 6.59375 -5.9375 C 6.382812 -5.738281 6.132812 -5.640625 5.84375 -5.640625 C 5.394531 -5.640625 5 -5.863281 4.65625 -6.3125 L 4.625 -6.34375 C 4.519531 -6.488281 4.394531 -6.570312 4.25 -6.59375 C 4.113281 -6.613281 3.988281 -6.546875 3.875 -6.390625 C 3.757812 -6.296875 3.664062 -6.179688 3.59375 -6.046875 C 3.53125 -5.910156 3.46875 -5.757812 3.40625 -5.59375 L 3.40625 -1.109375 C 3.40625 -0.679688 3.59375 -0.414062 3.96875 -0.3125 L 4.484375 -0.15625 L 4.484375 0 Z M 0.328125 0 "/></g></g><g style="fill:#b3151d;fill-opacity:1;"><g transform="translate(80.389485, 27.804421)"><path style="stroke:none" d="M 2.25 -8.796875 C 1.882812 -8.796875 1.578125 -8.910156 1.328125 -9.140625 C 1.078125 -9.378906 0.953125 -9.671875 0.953125 -10.015625 C 0.953125 -10.378906 1.078125 -10.675781 1.328125 -10.90625 C 1.578125 -11.132812 1.882812 -11.25 2.25 -11.25 C 2.613281 -11.25 2.914062 -11.132812 3.15625 -10.90625 C 3.40625 -10.675781 3.53125 -10.378906 3.53125 -10.015625 C 3.53125 -9.671875 3.40625 -9.378906 3.15625 -9.140625 C 2.914062 -8.910156 2.613281 -8.796875 2.25 -8.796875 Z M 0.359375 0 L 0.359375 -0.15625 L 0.578125 -0.21875 C 0.796875 -0.289062 0.941406 -0.390625 1.015625 -0.515625 C 1.097656 -0.640625 1.140625 -0.8125 1.140625 -1.03125 L 1.140625 -6.0625 C 1.140625 -6.28125 1.097656 -6.445312 1.015625 -6.5625 C 0.941406 -6.675781 0.796875 -6.753906 0.578125 -6.796875 L 0.359375 -6.84375 L 0.359375 -7 L 3.296875 -7.953125 L 3.453125 -7.796875 L 3.40625 -5.515625 L 3.40625 -1.015625 C 3.40625 -0.796875 3.441406 -0.625 3.515625 -0.5 C 3.597656 -0.375 3.742188 -0.273438 3.953125 -0.203125 L 4.109375 -0.15625 L 4.109375 0 Z M 0.359375 0 "/></g></g><g style="fill:#b3151d;fill-opacity:1;"><g transform="translate(84.740201, 27.804421)"><path style="stroke:none" d="M 2.671875 0.234375 C 2.046875 0.234375 1.519531 0.0625 1.09375 -0.28125 C 0.675781 -0.632812 0.46875 -1.144531 0.46875 -1.8125 C 0.46875 -2.3125 0.722656 -2.773438 1.234375 -3.203125 C 1.742188 -3.628906 2.550781 -3.945312 3.65625 -4.15625 C 3.832031 -4.1875 4.023438 -4.222656 4.234375 -4.265625 C 4.453125 -4.304688 4.679688 -4.347656 4.921875 -4.390625 L 4.921875 -5.65625 C 4.921875 -6.382812 4.832031 -6.894531 4.65625 -7.1875 C 4.476562 -7.476562 4.203125 -7.625 3.828125 -7.625 C 3.566406 -7.625 3.359375 -7.539062 3.203125 -7.375 C 3.054688 -7.207031 2.960938 -6.921875 2.921875 -6.515625 L 2.890625 -6.34375 C 2.867188 -5.882812 2.753906 -5.546875 2.546875 -5.328125 C 2.347656 -5.117188 2.097656 -5.015625 1.796875 -5.015625 C 1.515625 -5.015625 1.28125 -5.097656 1.09375 -5.265625 C 0.914062 -5.441406 0.828125 -5.671875 0.828125 -5.953125 C 0.828125 -6.398438 0.976562 -6.769531 1.28125 -7.0625 C 1.59375 -7.363281 2 -7.585938 2.5 -7.734375 C 3.007812 -7.890625 3.554688 -7.96875 4.140625 -7.96875 C 5.097656 -7.96875 5.832031 -7.734375 6.34375 -7.265625 C 6.863281 -6.796875 7.125 -6.039062 7.125 -5 L 7.125 -1.453125 C 7.125 -0.960938 7.351562 -0.71875 7.8125 -0.71875 L 8.15625 -0.71875 L 8.296875 -0.59375 C 8.097656 -0.332031 7.878906 -0.132812 7.640625 0 C 7.398438 0.132812 7.0625 0.203125 6.625 0.203125 C 6.144531 0.203125 5.769531 0.09375 5.5 -0.125 C 5.226562 -0.34375 5.050781 -0.632812 4.96875 -1 C 4.644531 -0.65625 4.3125 -0.363281 3.96875 -0.125 C 3.632812 0.113281 3.203125 0.234375 2.671875 0.234375 Z M 3.640625 -0.734375 C 3.859375 -0.734375 4.0625 -0.785156 4.25 -0.890625 C 4.4375 -0.992188 4.660156 -1.148438 4.921875 -1.359375 L 4.921875 -4.0625 C 4.804688 -4.039062 4.695312 -4.019531 4.59375 -4 C 4.488281 -3.976562 4.363281 -3.957031 4.21875 -3.9375 C 3.726562 -3.8125 3.335938 -3.59375 3.046875 -3.28125 C 2.753906 -2.976562 2.609375 -2.570312 2.609375 -2.0625 C 2.609375 -1.613281 2.707031 -1.28125 2.90625 -1.0625 C 3.113281 -0.84375 3.359375 -0.734375 3.640625 -0.734375 Z M 3.640625 -0.734375 "/></g></g><g style="fill:#b3151d;fill-opacity:1;"><g transform="translate(92.911894, 27.804421)"><path style="stroke:none" d="M 0.328125 0 L 0.328125 -0.15625 L 0.546875 -0.21875 C 0.921875 -0.332031 1.109375 -0.597656 1.109375 -1.015625 L 1.109375 -6.046875 C 1.109375 -6.273438 1.070312 -6.445312 1 -6.5625 C 0.925781 -6.675781 0.78125 -6.753906 0.5625 -6.796875 L 0.328125 -6.859375 L 0.328125 -7.015625 L 3.0625 -7.953125 L 3.234375 -7.796875 L 3.359375 -6.828125 C 3.734375 -7.160156 4.15625 -7.429688 4.625 -7.640625 C 5.09375 -7.859375 5.554688 -7.96875 6.015625 -7.96875 C 6.722656 -7.96875 7.265625 -7.773438 7.640625 -7.390625 C 8.023438 -7.003906 8.21875 -6.414062 8.21875 -5.625 L 8.21875 -1 C 8.21875 -0.582031 8.421875 -0.316406 8.828125 -0.203125 L 8.984375 -0.15625 L 8.984375 0 L 5.1875 0 L 5.1875 -0.15625 L 5.390625 -0.21875 C 5.765625 -0.34375 5.953125 -0.609375 5.953125 -1.015625 L 5.953125 -6.140625 C 5.953125 -6.816406 5.613281 -7.15625 4.9375 -7.15625 C 4.457031 -7.15625 3.941406 -6.921875 3.390625 -6.453125 L 3.390625 -1 C 3.390625 -0.582031 3.578125 -0.316406 3.953125 -0.203125 L 4.09375 -0.15625 L 4.09375 0 Z M 0.328125 0 "/></g></g><g style="fill:#b3151d;fill-opacity:1;"><g transform="translate(102.046858, 27.804421)"><path style="stroke:none" d="M 2.671875 0.234375 C 2.046875 0.234375 1.519531 0.0625 1.09375 -0.28125 C 0.675781 -0.632812 0.46875 -1.144531 0.46875 -1.8125 C 0.46875 -2.3125 0.722656 -2.773438 1.234375 -3.203125 C 1.742188 -3.628906 2.550781 -3.945312 3.65625 -4.15625 C 3.832031 -4.1875 4.023438 -4.222656 4.234375 -4.265625 C 4.453125 -4.304688 4.679688 -4.347656 4.921875 -4.390625 L 4.921875 -5.65625 C 4.921875 -6.382812 4.832031 -6.894531 4.65625 -7.1875 C 4.476562 -7.476562 4.203125 -7.625 3.828125 -7.625 C 3.566406 -7.625 3.359375 -7.539062 3.203125 -7.375 C 3.054688 -7.207031 2.960938 -6.921875 2.921875 -6.515625 L 2.890625 -6.34375 C 2.867188 -5.882812 2.753906 -5.546875 2.546875 -5.328125 C 2.347656 -5.117188 2.097656 -5.015625 1.796875 -5.015625 C 1.515625 -5.015625 1.28125 -5.097656 1.09375 -5.265625 C 0.914062 -5.441406 0.828125 -5.671875 0.828125 -5.953125 C 0.828125 -6.398438 0.976562 -6.769531 1.28125 -7.0625 C 1.59375 -7.363281 2 -7.585938 2.5 -7.734375 C 3.007812 -7.890625 3.554688 -7.96875 4.140625 -7.96875 C 5.097656 -7.96875 5.832031 -7.734375 6.34375 -7.265625 C 6.863281 -6.796875 7.125 -6.039062 7.125 -5 L 7.125 -1.453125 C 7.125 -0.960938 7.351562 -0.71875 7.8125 -0.71875 L 8.15625 -0.71875 L 8.296875 -0.59375 C 8.097656 -0.332031 7.878906 -0.132812 7.640625 0 C 7.398438 0.132812 7.0625 0.203125 6.625 0.203125 C 6.144531 0.203125 5.769531 0.09375 5.5 -0.125 C 5.226562 -0.34375 5.050781 -0.632812 4.96875 -1 C 4.644531 -0.65625 4.3125 -0.363281 3.96875 -0.125 C 3.632812 0.113281 3.203125 0.234375 2.671875 0.234375 Z M 3.640625 -0.734375 C 3.859375 -0.734375 4.0625 -0.785156 4.25 -0.890625 C 4.4375 -0.992188 4.660156 -1.148438 4.921875 -1.359375 L 4.921875 -4.0625 C 4.804688 -4.039062 4.695312 -4.019531 4.59375 -4 C 4.488281 -3.976562 4.363281 -3.957031 4.21875 -3.9375 C 3.726562 -3.8125 3.335938 -3.59375 3.046875 -3.28125 C 2.753906 -2.976562 2.609375 -2.570312 2.609375 -2.0625 C 2.609375 -1.613281 2.707031 -1.28125 2.90625 -1.0625 C 3.113281 -0.84375 3.359375 -0.734375 3.640625 -0.734375 Z M 3.640625 -0.734375 "/></g></g><g style="fill:#b3151d;fill-opacity:1;"><g transform="translate(110.218551, 27.804421)"><path style="stroke:none" d="M 0.359375 0 L 0.359375 -0.15625 L 0.6875 -0.296875 C 0.914062 -0.378906 1.054688 -0.476562 1.109375 -0.59375 C 1.171875 -0.71875 1.203125 -0.890625 1.203125 -1.109375 L 1.203125 -9.5 C 1.203125 -9.707031 1.171875 -9.875 1.109375 -10 C 1.046875 -10.132812 0.90625 -10.238281 0.6875 -10.3125 L 0.359375 -10.4375 L 0.359375 -10.59375 L 4.453125 -10.59375 L 4.453125 -10.4375 L 4.15625 -10.3125 C 3.957031 -10.238281 3.816406 -10.132812 3.734375 -10 C 3.660156 -9.863281 3.625 -9.691406 3.625 -9.484375 L 3.625 -0.328125 L 6.109375 -0.328125 C 6.503906 -0.328125 6.796875 -0.421875 6.984375 -0.609375 C 7.171875 -0.804688 7.347656 -1.085938 7.515625 -1.453125 L 8.140625 -2.796875 L 8.296875 -2.796875 L 8.15625 0 Z M 0.359375 0 "/></g></g><g style="fill:#b3151d;fill-opacity:1;"><g transform="translate(118.743439, 27.804421)"><path style="stroke:none" d="M 4.359375 -7.96875 C 5.046875 -7.96875 5.632812 -7.820312 6.125 -7.53125 C 6.625 -7.25 7.003906 -6.863281 7.265625 -6.375 C 7.523438 -5.894531 7.65625 -5.34375 7.65625 -4.71875 C 7.65625 -4.601562 7.648438 -4.484375 7.640625 -4.359375 C 7.628906 -4.234375 7.609375 -4.125 7.578125 -4.03125 L 2.796875 -4.03125 C 2.804688 -2.875 3.007812 -2.039062 3.40625 -1.53125 C 3.8125 -1.019531 4.410156 -0.765625 5.203125 -0.765625 C 5.734375 -0.765625 6.164062 -0.847656 6.5 -1.015625 C 6.832031 -1.191406 7.144531 -1.445312 7.4375 -1.78125 L 7.59375 -1.640625 C 7.257812 -1.046875 6.816406 -0.582031 6.265625 -0.25 C 5.710938 0.0703125 5.050781 0.234375 4.28125 0.234375 C 3.519531 0.234375 2.84375 0.0703125 2.25 -0.25 C 1.664062 -0.570312 1.207031 -1.035156 0.875 -1.640625 C 0.550781 -2.253906 0.390625 -2.988281 0.390625 -3.84375 C 0.390625 -4.71875 0.582031 -5.460938 0.96875 -6.078125 C 1.351562 -6.691406 1.847656 -7.160156 2.453125 -7.484375 C 3.054688 -7.804688 3.691406 -7.96875 4.359375 -7.96875 Z M 4.3125 -7.640625 C 4 -7.640625 3.734375 -7.546875 3.515625 -7.359375 C 3.296875 -7.171875 3.125 -6.835938 3 -6.359375 C 2.875 -5.890625 2.804688 -5.222656 2.796875 -4.359375 L 5.546875 -4.359375 C 5.648438 -5.523438 5.601562 -6.363281 5.40625 -6.875 C 5.21875 -7.382812 4.851562 -7.640625 4.3125 -7.640625 Z M 4.3125 -7.640625 "/></g></g><g style="fill:#b3151d;fill-opacity:1;"><g transform="translate(126.738529, 27.804421)"><path style="stroke:none" d="M 0.328125 0 L 0.328125 -0.15625 L 0.5625 -0.21875 C 0.78125 -0.289062 0.925781 -0.390625 1 -0.515625 C 1.082031 -0.640625 1.125 -0.804688 1.125 -1.015625 L 1.125 -6.046875 C 1.125 -6.273438 1.082031 -6.445312 1 -6.5625 C 0.925781 -6.675781 0.78125 -6.753906 0.5625 -6.796875 L 0.328125 -6.859375 L 0.328125 -7.015625 L 3.078125 -7.953125 L 3.25 -7.796875 L 3.390625 -6.40625 L 3.390625 -6.28125 C 3.535156 -6.582031 3.726562 -6.859375 3.96875 -7.109375 C 4.21875 -7.359375 4.488281 -7.5625 4.78125 -7.71875 C 5.070312 -7.882812 5.363281 -7.96875 5.65625 -7.96875 C 6.0625 -7.96875 6.367188 -7.851562 6.578125 -7.625 C 6.796875 -7.40625 6.90625 -7.125 6.90625 -6.78125 C 6.90625 -6.414062 6.800781 -6.132812 6.59375 -5.9375 C 6.382812 -5.738281 6.132812 -5.640625 5.84375 -5.640625 C 5.394531 -5.640625 5 -5.863281 4.65625 -6.3125 L 4.625 -6.34375 C 4.519531 -6.488281 4.394531 -6.570312 4.25 -6.59375 C 4.113281 -6.613281 3.988281 -6.546875 3.875 -6.390625 C 3.757812 -6.296875 3.664062 -6.179688 3.59375 -6.046875 C 3.53125 -5.910156 3.46875 -5.757812 3.40625 -5.59375 L 3.40625 -1.109375 C 3.40625 -0.679688 3.59375 -0.414062 3.96875 -0.3125 L 4.484375 -0.15625 L 4.484375 0 Z M 0.328125 0 "/></g></g><g style="fill:#b3151d;fill-opacity:1;"><g transform="translate(133.674024, 27.804421)"><path style="stroke:none" d="M 4.390625 0.234375 C 3.578125 0.234375 2.867188 0.0664062 2.265625 -0.265625 C 1.660156 -0.597656 1.195312 -1.078125 0.875 -1.703125 C 0.550781 -2.328125 0.390625 -3.054688 0.390625 -3.890625 C 0.390625 -4.722656 0.5625 -5.441406 0.90625 -6.046875 C 1.25 -6.660156 1.722656 -7.132812 2.328125 -7.46875 C 2.941406 -7.800781 3.628906 -7.96875 4.390625 -7.96875 C 5.148438 -7.96875 5.828125 -7.800781 6.421875 -7.46875 C 7.023438 -7.144531 7.5 -6.675781 7.84375 -6.0625 C 8.195312 -5.457031 8.375 -4.734375 8.375 -3.890625 C 8.375 -3.046875 8.207031 -2.3125 7.875 -1.6875 C 7.550781 -1.070312 7.09375 -0.597656 6.5 -0.265625 C 5.90625 0.0664062 5.203125 0.234375 4.390625 0.234375 Z M 4.390625 -0.078125 C 4.765625 -0.078125 5.0625 -0.179688 5.28125 -0.390625 C 5.507812 -0.609375 5.671875 -0.988281 5.765625 -1.53125 C 5.867188 -2.082031 5.921875 -2.859375 5.921875 -3.859375 C 5.921875 -4.859375 5.867188 -5.628906 5.765625 -6.171875 C 5.671875 -6.722656 5.507812 -7.101562 5.28125 -7.3125 C 5.0625 -7.53125 4.765625 -7.640625 4.390625 -7.640625 C 4.015625 -7.640625 3.707031 -7.53125 3.46875 -7.3125 C 3.238281 -7.101562 3.070312 -6.722656 2.96875 -6.171875 C 2.875 -5.628906 2.828125 -4.859375 2.828125 -3.859375 C 2.828125 -2.859375 2.875 -2.082031 2.96875 -1.53125 C 3.070312 -0.988281 3.238281 -0.609375 3.46875 -0.390625 C 3.707031 -0.179688 4.015625 -0.078125 4.390625 -0.078125 Z M 4.390625 -0.078125 "/></g></g><g style="fill:#b3151d;fill-opacity:1;"><g transform="translate(142.282844, 27.804421)"><path style="stroke:none" d=""/></g></g></g></svg>