<svg xmlns="http://www.w3.org/2000/svg" xmlns:xlink="http://www.w3.org/1999/xlink" width="70" zoomAndPan="magnify" viewBox="0 0 52.5 52.499999" height="70" preserveAspectRatio="xMidYMid meet" version="1.0"><defs><clipPath id="6f04bd80c9"><path d="M 11.515625 7.28125 L 47 7.28125 L 47 42.941406 L 11.515625 42.941406 Z M 11.515625 7.28125 " clip-rule="nonzero"/></clipPath><clipPath id="876dfb5620"><path d="M 4.027344 11.261719 L 16 11.261719 L 16 22.40625 L 4.027344 22.40625 Z M 4.027344 11.261719 " clip-rule="nonzero"/></clipPath><clipPath id="e030e2056f"><path d="M 13 16 L 18.886719 16 L 18.886719 22.40625 L 13 22.40625 Z M 13 16 " clip-rule="nonzero"/></clipPath><clipPath id="9343438c1a"><path d="M 12 11.261719 L 16 11.261719 L 16 16 L 12 16 Z M 12 11.261719 " clip-rule="nonzero"/></clipPath></defs><g clip-path="url(#6f04bd80c9)"><path fill="#a41423" d="M 16.535156 42.214844 L 21.246094 40.832031 C 22.019531 40.601562 22.695312 40.195312 23.265625 39.621094 L 44.988281 17.898438 C 46.671875 16.21875 46.835938 13.644531 45.355469 12.167969 L 42.027344 8.835938 C 40.546875 7.355469 37.976562 7.523438 36.292969 9.203125 L 14.570312 30.929688 C 13.996094 31.496094 13.59375 32.171875 13.359375 32.945312 L 11.980469 37.65625 C 11.765625 38.304688 11.734375 38.964844 11.882812 39.632812 C 12.035156 40.296875 12.347656 40.878906 12.824219 41.371094 C 13.523438 42.0625 14.363281 42.402344 15.347656 42.390625 C 15.753906 42.386719 16.148438 42.328125 16.535156 42.214844 Z M 38.332031 11.242188 C 38.648438 10.90625 39.035156 10.726562 39.496094 10.703125 C 39.683594 10.691406 39.847656 10.75 39.988281 10.875 L 43.320312 14.203125 C 43.625 14.507812 43.53125 15.28125 42.953125 15.863281 L 39.617188 19.195312 L 34.996094 14.574219 Z M 14.742188 38.46875 L 16.125 33.757812 C 16.21875 33.453125 16.378906 33.1875 16.609375 32.964844 L 32.960938 16.613281 L 37.582031 21.230469 L 21.226562 37.585938 C 21.003906 37.8125 20.738281 37.972656 20.433594 38.070312 L 15.726562 39.449219 C 15.414062 39.582031 15.125 39.542969 14.859375 39.332031 C 14.652344 39.066406 14.613281 38.78125 14.742188 38.46875 Z M 14.742188 38.46875 " fill-opacity="1" fill-rule="nonzero"/></g><g clip-path="url(#876dfb5620)"><path fill="#a41423" d="M 9.851562 14.3125 C 9.886719 14.632812 9.972656 14.9375 10.113281 15.226562 C 10.25 15.519531 10.433594 15.777344 10.664062 16.003906 C 10.890625 16.230469 11.148438 16.414062 11.441406 16.554688 C 11.730469 16.695312 12.035156 16.78125 12.355469 16.816406 C 13.367188 16.917969 14.382812 16.964844 15.398438 16.953125 C 14.382812 16.945312 13.367188 16.992188 12.355469 17.09375 C 12.035156 17.128906 11.730469 17.214844 11.441406 17.355469 C 11.148438 17.492188 10.890625 17.675781 10.664062 17.90625 C 10.433594 18.132812 10.25 18.390625 10.113281 18.683594 C 9.972656 18.972656 9.886719 19.277344 9.851562 19.597656 C 9.75 20.609375 9.703125 21.625 9.710938 22.640625 C 9.722656 21.625 9.675781 20.609375 9.574219 19.597656 C 9.539062 19.277344 9.453125 18.972656 9.3125 18.683594 C 9.171875 18.390625 8.988281 18.132812 8.761719 17.90625 C 8.535156 17.675781 8.277344 17.492188 7.984375 17.355469 C 7.695312 17.214844 7.390625 17.128906 7.070312 17.09375 C 6.058594 16.992188 5.042969 16.945312 4.027344 16.953125 C 5.042969 16.964844 6.058594 16.917969 7.070312 16.816406 C 7.390625 16.78125 7.695312 16.695312 7.984375 16.554688 C 8.277344 16.414062 8.535156 16.230469 8.761719 16.003906 C 8.988281 15.777344 9.171875 15.519531 9.3125 15.226562 C 9.453125 14.9375 9.539062 14.632812 9.574219 14.3125 C 9.675781 13.300781 9.722656 12.285156 9.710938 11.269531 C 9.703125 12.285156 9.75 13.300781 9.851562 14.3125 Z M 9.851562 14.3125 " fill-opacity="1" fill-rule="nonzero"/></g><g clip-path="url(#e030e2056f)"><path fill="#a41423" d="M 16.199219 18.492188 C 16.234375 18.828125 16.371094 19.113281 16.609375 19.351562 C 16.847656 19.589844 17.132812 19.726562 17.464844 19.761719 C 17.976562 19.8125 18.492188 19.835938 19.003906 19.832031 C 18.492188 19.828125 17.976562 19.851562 17.464844 19.902344 C 17.132812 19.9375 16.847656 20.074219 16.609375 20.3125 C 16.371094 20.550781 16.234375 20.835938 16.199219 21.167969 C 16.148438 21.679688 16.125 22.195312 16.128906 22.707031 C 16.132812 22.195312 16.109375 21.679688 16.058594 21.167969 C 16.023438 20.835938 15.882812 20.550781 15.648438 20.3125 C 15.410156 20.074219 15.125 19.9375 14.789062 19.902344 C 14.277344 19.851562 13.765625 19.828125 13.25 19.832031 C 13.765625 19.835938 14.277344 19.8125 14.789062 19.761719 C 15.125 19.726562 15.410156 19.589844 15.648438 19.351562 C 15.882812 19.113281 16.023438 18.828125 16.058594 18.492188 C 16.109375 17.980469 16.132812 17.46875 16.128906 16.953125 C 16.125 17.46875 16.148438 17.980469 16.199219 18.492188 Z M 16.199219 18.492188 " fill-opacity="1" fill-rule="nonzero"/></g><g clip-path="url(#9343438c1a)"><path fill="#a41423" d="M 14.035156 12.816406 C 14.058594 13.019531 14.140625 13.195312 14.285156 13.339844 C 14.429688 13.484375 14.605469 13.566406 14.808594 13.589844 C 15.121094 13.621094 15.433594 13.636719 15.75 13.632812 C 15.433594 13.632812 15.121094 13.644531 14.808594 13.675781 C 14.605469 13.699219 14.429688 13.78125 14.285156 13.925781 C 14.140625 14.070312 14.058594 14.246094 14.035156 14.449219 C 14.003906 14.761719 13.992188 15.074219 13.992188 15.390625 C 13.996094 15.074219 13.980469 14.761719 13.949219 14.449219 C 13.929688 14.246094 13.84375 14.070312 13.699219 13.925781 C 13.554688 13.78125 13.378906 13.699219 13.175781 13.675781 C 12.863281 13.644531 12.550781 13.632812 12.234375 13.632812 C 12.550781 13.636719 12.863281 13.621094 13.175781 13.589844 C 13.378906 13.566406 13.554688 13.484375 13.699219 13.339844 C 13.84375 13.195312 13.925781 13.019531 13.949219 12.816406 C 13.980469 12.503906 13.996094 12.191406 13.992188 11.875 C 13.992188 12.191406 14.003906 12.503906 14.035156 12.816406 Z M 14.035156 12.816406 " fill-opacity="1" fill-rule="nonzero"/></g></svg>