<svg xmlns="http://www.w3.org/2000/svg" xmlns:xlink="http://www.w3.org/1999/xlink" width="70" zoomAndPan="magnify" viewBox="0 0 52.5 52.499999" height="70" preserveAspectRatio="xMidYMid meet" version="1.0"><defs><clipPath id="ed97313ef6"><path d="M 4.160156 0 L 45.765625 0 L 45.765625 52 L 4.160156 52 Z M 4.160156 0 " clip-rule="nonzero"/></clipPath></defs><g clip-path="url(#ed97313ef6)"><path fill="#ffffff" d="M 45.339844 0 L 14.914062 7.074219 L 14.914062 40.894531 C 13.953125 40.535156 12.960938 40.375 11.9375 40.417969 C 10.910156 40.460938 9.933594 40.703125 9.007812 41.144531 C 8.640625 41.257812 8.285156 41.410156 7.945312 41.59375 C 7.605469 41.777344 7.285156 41.988281 6.984375 42.234375 C 6.6875 42.476562 6.414062 42.746094 6.164062 43.042969 C 5.917969 43.339844 5.699219 43.65625 5.511719 43.992188 C 5.324219 44.332031 5.171875 44.683594 5.050781 45.050781 C 4.929688 45.417969 4.84375 45.792969 4.796875 46.175781 C 4.746094 46.558594 4.734375 46.941406 4.757812 47.328125 C 4.78125 47.714844 4.84375 48.09375 4.9375 48.46875 C 5.152344 48.789062 5.390625 49.089844 5.660156 49.371094 C 5.929688 49.648438 6.226562 49.894531 6.542969 50.117188 C 6.859375 50.339844 7.195312 50.527344 7.550781 50.683594 C 7.902344 50.839844 8.269531 50.964844 8.648438 51.050781 C 9.023438 51.136719 9.40625 51.1875 9.792969 51.199219 C 10.179688 51.210938 10.566406 51.1875 10.949219 51.128906 C 11.328125 51.066406 11.703125 50.972656 12.066406 50.839844 C 12.429688 50.707031 12.777344 50.542969 13.109375 50.34375 C 14.203125 49.921875 15.136719 49.269531 15.90625 48.386719 C 16.675781 47.503906 17.195312 46.492188 17.460938 45.355469 C 17.5 44.941406 17.5 44.527344 17.460938 44.117188 L 17.460938 14.152344 L 42.722656 8.101562 L 42.722656 34.457031 C 41.761719 34.09375 40.769531 33.933594 39.742188 33.976562 C 38.714844 34.019531 37.742188 34.261719 36.8125 34.707031 C 36.453125 34.828125 36.105469 34.984375 35.773438 35.171875 C 35.441406 35.359375 35.128906 35.578125 34.839844 35.824219 C 34.546875 36.074219 34.28125 36.34375 34.042969 36.644531 C 33.804688 36.941406 33.59375 37.257812 33.414062 37.59375 C 33.238281 37.933594 33.089844 38.285156 32.976562 38.648438 C 32.863281 39.011719 32.789062 39.386719 32.746094 39.765625 C 32.703125 40.144531 32.695312 40.523438 32.726562 40.90625 C 32.757812 41.285156 32.820312 41.660156 32.921875 42.027344 C 33.136719 42.351562 33.378906 42.648438 33.648438 42.925781 C 33.917969 43.203125 34.214844 43.449219 34.53125 43.671875 C 34.847656 43.890625 35.183594 44.078125 35.539062 44.234375 C 35.890625 44.390625 36.257812 44.511719 36.632812 44.597656 C 37.011719 44.683594 37.390625 44.734375 37.777344 44.75 C 38.164062 44.761719 38.550781 44.738281 38.929688 44.679688 C 39.3125 44.621094 39.6875 44.523438 40.050781 44.394531 C 40.414062 44.265625 40.761719 44.101562 41.09375 43.902344 C 41.714844 43.671875 42.289062 43.355469 42.816406 42.957031 C 43.34375 42.554688 43.800781 42.089844 44.191406 41.554688 C 44.582031 41.019531 44.886719 40.441406 45.105469 39.816406 C 45.324219 39.191406 45.449219 38.550781 45.480469 37.890625 L 45.480469 7.605469 Z M 45.339844 0 " fill-opacity="1" fill-rule="nonzero"/></g></svg>