<svg xmlns="http://www.w3.org/2000/svg" xmlns:xlink="http://www.w3.org/1999/xlink" width="70" zoomAndPan="magnify" viewBox="0 0 52.5 52.499999" height="70" preserveAspectRatio="xMidYMid meet" version="1.0"><defs><clipPath id="9d5edd2654"><path d="M 0 5.816406 L 25 5.816406 L 25 45.933594 L 0 45.933594 Z M 0 5.816406 " clip-rule="nonzero"/></clipPath><clipPath id="40269fc2d0"><path d="M 25 5.816406 L 51 5.816406 L 51 45.933594 L 25 45.933594 Z M 25 5.816406 " clip-rule="nonzero"/></clipPath></defs><g clip-path="url(#9d5edd2654)"><path fill="#ffffff" d="M 16.800781 27.929688 C 15.367188 28.476562 13.796875 28.820312 12.15625 28.820312 C 5.429688 28.785156 0 23.664062 0 17.378906 C 0 11.097656 5.429688 5.941406 12.15625 5.941406 C 18.882812 5.941406 24.3125 11.0625 24.3125 17.378906 C 26.019531 34.179688 6.144531 46.0625 6.144531 46.0625 L 4.574219 44.183594 C 4.574219 44.152344 17.722656 33.976562 16.800781 27.929688 Z M 16.800781 27.929688 " fill-opacity="1" fill-rule="nonzero"/></g><g clip-path="url(#40269fc2d0)"><path fill="#ffffff" d="M 42.785156 27.929688 C 41.351562 28.476562 39.78125 28.820312 38.140625 28.820312 C 31.414062 28.820312 25.984375 23.695312 25.984375 17.378906 C 25.984375 11.0625 31.414062 5.941406 38.140625 5.941406 C 44.867188 5.941406 50.296875 11.0625 50.296875 17.378906 C 52.003906 34.179688 32.132812 46.0625 32.132812 46.0625 L 30.5625 44.183594 C 30.5625 44.152344 43.707031 33.976562 42.785156 27.929688 Z M 42.785156 27.929688 " fill-opacity="1" fill-rule="nonzero"/></g></svg>