<svg xmlns="http://www.w3.org/2000/svg" xmlns:xlink="http://www.w3.org/1999/xlink" width="70" zoomAndPan="magnify" viewBox="0 0 52.5 52.499999" height="70" preserveAspectRatio="xMidYMid meet" version="1.0"><defs><clipPath id="4de6bf8a62"><path d="M 0 0 L 52.003906 0 L 52.003906 52.003906 L 0 52.003906 Z M 0 0 " clip-rule="nonzero"/></clipPath></defs><path fill="#ffffff" d="M 26.003906 20.238281 C 22.828125 20.238281 20.238281 22.828125 20.238281 26.003906 C 20.238281 29.175781 22.828125 31.765625 26.003906 31.765625 C 29.175781 31.765625 31.765625 29.175781 31.765625 26.003906 C 31.765625 22.828125 29.175781 20.238281 26.003906 20.238281 Z M 26.003906 20.238281 " fill-opacity="1" fill-rule="nonzero"/><path fill="#ffffff" d="M 33.746094 11.863281 L 18.257812 11.863281 C 14.746094 11.863281 11.863281 14.722656 11.863281 18.257812 L 11.863281 33.746094 C 11.863281 37.257812 14.722656 40.140625 18.257812 40.140625 L 33.746094 40.140625 C 37.257812 40.140625 40.140625 37.28125 40.140625 33.746094 L 40.140625 18.257812 C 40.117188 14.722656 37.257812 11.863281 33.746094 11.863281 Z M 26.003906 34.667969 C 21.207031 34.667969 17.3125 30.773438 17.3125 25.980469 C 17.3125 21.183594 21.207031 17.289062 26.003906 17.289062 C 30.796875 17.289062 34.691406 21.183594 34.691406 25.980469 C 34.667969 30.773438 30.773438 34.667969 26.003906 34.667969 Z M 35.300781 18.753906 C 34.152344 18.753906 33.207031 17.808594 33.207031 16.660156 C 33.207031 15.511719 34.152344 14.566406 35.300781 14.566406 C 36.449219 14.566406 37.394531 15.511719 37.394531 16.660156 C 37.394531 17.832031 36.472656 18.753906 35.300781 18.753906 Z M 35.300781 18.753906 " fill-opacity="1" fill-rule="nonzero"/><g clip-path="url(#4de6bf8a62)"><path fill="#ffffff" d="M 26.003906 0 C 11.640625 0 0 11.640625 0 26.003906 C 0 40.367188 11.640625 52.003906 26.003906 52.003906 C 40.367188 52.003906 52.003906 40.367188 52.003906 26.003906 C 51.980469 11.640625 40.34375 0 26.003906 0 Z M 43.042969 33.746094 C 43.042969 38.878906 38.855469 43.066406 33.722656 43.066406 L 18.257812 43.066406 C 13.125 43.066406 8.9375 38.878906 8.9375 33.746094 L 8.9375 18.257812 C 8.9375 13.125 13.125 8.9375 18.257812 8.9375 L 33.746094 8.9375 C 38.878906 8.9375 43.066406 13.125 43.066406 18.257812 L 43.066406 33.746094 Z M 43.042969 33.746094 " fill-opacity="1" fill-rule="nonzero"/></g></svg>