<svg xmlns="http://www.w3.org/2000/svg" xmlns:xlink="http://www.w3.org/1999/xlink" width="70" zoomAndPan="magnify" viewBox="0 0 52.5 52.499999" height="70" preserveAspectRatio="xMidYMid meet" version="1.0"><defs><clipPath id="b16b31cbd0"><path d="M 2.007812 9.65625 L 50 9.65625 L 50 45.320312 L 2.007812 45.320312 Z M 2.007812 9.65625 " clip-rule="nonzero"/></clipPath></defs><g clip-path="url(#b16b31cbd0)"><path fill="#ffffff" d="M 43.996094 9.65625 L 4.011719 9.65625 C 2.90625 9.65625 2.011719 10.550781 2.011719 11.65625 L 2.011719 39.644531 L 5.011719 39.644531 L 5.011719 12.65625 L 43.996094 12.65625 Z M 13.054688 24.652344 C 13.054688 27.136719 15.070312 29.148438 17.554688 29.148438 C 20.039062 29.148438 22.050781 27.136719 22.050781 24.652344 C 22.050781 22.167969 20.039062 20.152344 17.554688 20.152344 C 15.070312 20.152344 13.054688 22.167969 13.054688 24.652344 Z M 46.996094 30.75 L 41.03125 24.652344 L 31.238281 33.867188 L 25.996094 29.539062 L 11.007812 42.644531 L 11.007812 18.652344 L 46.996094 18.652344 Z M 8.007812 17.652344 L 8.007812 43.644531 C 8.007812 44.746094 8.90625 45.644531 10.007812 45.644531 L 47.992188 45.644531 C 49.097656 45.644531 49.992188 44.746094 49.992188 43.644531 L 49.992188 17.652344 C 49.992188 16.550781 49.097656 15.65625 47.992188 15.65625 L 10.007812 15.65625 C 8.90625 15.65625 8.007812 16.550781 8.007812 17.652344 " fill-opacity="1" fill-rule="nonzero"/></g></svg>