<svg xmlns="http://www.w3.org/2000/svg" xmlns:xlink="http://www.w3.org/1999/xlink" width="70" zoomAndPan="magnify" viewBox="0 0 52.5 52.499999" height="70" preserveAspectRatio="xMidYMid meet" version="1.0"><defs><clipPath id="773fdaf35d"><path d="M 3.492188 3.492188 L 46.582031 3.492188 L 46.582031 46.582031 L 3.492188 46.582031 Z M 3.492188 3.492188 " clip-rule="nonzero"/></clipPath></defs><g clip-path="url(#773fdaf35d)"><path fill="#bdaa8c" d="M 16.179688 3.644531 C 13.875 3.753906 12.300781 4.121094 10.925781 4.660156 C 9.5 5.214844 8.292969 5.960938 7.09375 7.164062 C 5.894531 8.371094 5.15625 9.578125 4.605469 11.003906 C 4.070312 12.382812 3.710938 13.957031 3.605469 16.261719 C 3.503906 18.566406 3.484375 19.308594 3.496094 25.1875 C 3.503906 31.070312 3.53125 31.804688 3.644531 34.117188 C 3.753906 36.421875 4.121094 37.992188 4.660156 39.367188 C 5.214844 40.792969 5.960938 42 7.164062 43.199219 C 8.371094 44.402344 9.578125 45.136719 11.007812 45.691406 C 12.382812 46.222656 13.957031 46.585938 16.261719 46.6875 C 18.570312 46.789062 19.308594 46.8125 25.1875 46.800781 C 31.066406 46.789062 31.808594 46.761719 34.117188 46.652344 C 36.429688 46.542969 37.992188 46.175781 39.367188 45.636719 C 40.792969 45.078125 42 44.335938 43.199219 43.132812 C 44.398438 41.925781 45.140625 40.71875 45.6875 39.289062 C 46.222656 37.914062 46.585938 36.335938 46.683594 34.035156 C 46.785156 31.722656 46.808594 30.984375 46.800781 25.105469 C 46.789062 19.226562 46.761719 18.488281 46.652344 16.179688 C 46.542969 13.871094 46.175781 12.300781 45.636719 10.925781 C 45.078125 9.5 44.335938 8.296875 43.132812 7.09375 C 41.925781 5.890625 40.71875 5.152344 39.289062 4.605469 C 37.914062 4.070312 36.339844 3.707031 34.035156 3.609375 C 31.726562 3.507812 30.988281 3.484375 25.105469 3.496094 C 19.222656 3.503906 18.488281 3.53125 16.179688 3.644531 M 16.429688 42.789062 C 14.320312 42.699219 13.171875 42.347656 12.410156 42.054688 C 11.398438 41.664062 10.675781 41.191406 9.914062 40.4375 C 9.152344 39.683594 8.6875 38.960938 8.292969 37.953125 C 7.996094 37.1875 7.636719 36.042969 7.539062 33.933594 C 7.429688 31.648438 7.410156 30.964844 7.394531 25.183594 C 7.382812 19.402344 7.40625 18.71875 7.503906 16.433594 C 7.597656 14.324219 7.949219 13.175781 8.242188 12.414062 C 8.632812 11.402344 9.101562 10.679688 9.855469 9.921875 C 10.613281 9.160156 11.332031 8.691406 12.34375 8.296875 C 13.109375 7.996094 14.253906 7.644531 16.363281 7.542969 C 18.648438 7.433594 19.332031 7.414062 25.113281 7.402344 C 30.890625 7.386719 31.578125 7.410156 33.863281 7.511719 C 35.972656 7.601562 37.121094 7.953125 37.882812 8.246094 C 38.894531 8.636719 39.617188 9.105469 40.375 9.863281 C 41.136719 10.617188 41.605469 11.335938 42 12.347656 C 42.300781 13.109375 42.65625 14.253906 42.753906 16.367188 C 42.863281 18.652344 42.886719 19.335938 42.898438 25.117188 C 42.910156 30.894531 42.886719 31.582031 42.789062 33.863281 C 42.695312 35.976562 42.347656 37.121094 42.050781 37.886719 C 41.660156 38.898438 41.191406 39.621094 40.4375 40.378906 C 39.679688 41.140625 38.960938 41.609375 37.949219 42.003906 C 37.1875 42.300781 36.039062 42.65625 33.929688 42.757812 C 31.648438 42.863281 30.964844 42.886719 25.179688 42.898438 C 19.398438 42.914062 18.714844 42.890625 16.429688 42.789062 M 34.085938 13.574219 C 34.085938 13.917969 34.152344 14.25 34.285156 14.566406 C 34.417969 14.886719 34.605469 15.167969 34.847656 15.410156 C 35.09375 15.652344 35.375 15.839844 35.691406 15.972656 C 36.011719 16.101562 36.34375 16.167969 36.6875 16.167969 C 37.03125 16.167969 37.363281 16.101562 37.683594 15.96875 C 38 15.835938 38.28125 15.648438 38.523438 15.402344 C 38.765625 15.160156 38.953125 14.878906 39.085938 14.558594 C 39.21875 14.238281 39.28125 13.910156 39.28125 13.5625 C 39.28125 13.21875 39.214844 12.886719 39.082031 12.570312 C 38.949219 12.25 38.761719 11.972656 38.515625 11.726562 C 38.273438 11.484375 37.992188 11.296875 37.671875 11.164062 C 37.355469 11.035156 37.023438 10.96875 36.679688 10.96875 C 36.332031 10.972656 36.003906 11.039062 35.683594 11.167969 C 35.367188 11.300781 35.085938 11.492188 34.84375 11.734375 C 34.597656 11.980469 34.414062 12.261719 34.28125 12.578125 C 34.148438 12.898438 34.085938 13.230469 34.085938 13.574219 M 14.027344 25.167969 C 14.039062 31.308594 19.027344 36.277344 25.167969 36.265625 C 31.308594 36.253906 36.277344 31.265625 36.265625 25.125 C 36.253906 18.984375 31.265625 14.015625 25.125 14.027344 C 18.984375 14.039062 14.015625 19.027344 14.027344 25.167969 M 17.929688 25.160156 C 17.925781 24.6875 17.972656 24.21875 18.0625 23.753906 C 18.15625 23.289062 18.292969 22.835938 18.472656 22.398438 C 18.652344 21.957031 18.875 21.542969 19.136719 21.148438 C 19.398438 20.753906 19.699219 20.386719 20.03125 20.050781 C 20.367188 19.714844 20.730469 19.417969 21.125 19.152344 C 21.519531 18.886719 21.933594 18.664062 22.371094 18.484375 C 22.808594 18.300781 23.261719 18.164062 23.722656 18.070312 C 24.1875 17.976562 24.660156 17.929688 25.132812 17.929688 C 25.605469 17.925781 26.074219 17.972656 26.542969 18.0625 C 27.007812 18.15625 27.457031 18.292969 27.894531 18.472656 C 28.335938 18.652344 28.75 18.875 29.144531 19.136719 C 29.539062 19.398438 29.90625 19.699219 30.242188 20.03125 C 30.578125 20.367188 30.875 20.730469 31.140625 21.125 C 31.40625 21.519531 31.628906 21.933594 31.808594 22.371094 C 31.992188 22.808594 32.128906 23.257812 32.222656 23.722656 C 32.316406 24.1875 32.363281 24.65625 32.367188 25.132812 C 32.367188 25.605469 32.320312 26.074219 32.230469 26.539062 C 32.136719 27.003906 32 27.457031 31.820312 27.894531 C 31.640625 28.332031 31.417969 28.75 31.15625 29.144531 C 30.894531 29.539062 30.59375 29.90625 30.261719 30.242188 C 29.925781 30.578125 29.5625 30.875 29.167969 31.140625 C 28.777344 31.40625 28.359375 31.628906 27.921875 31.808594 C 27.484375 31.992188 27.035156 32.128906 26.570312 32.222656 C 26.105469 32.316406 25.636719 32.363281 25.160156 32.363281 C 24.6875 32.367188 24.21875 32.320312 23.753906 32.230469 C 23.289062 32.136719 22.835938 32 22.398438 31.820312 C 21.960938 31.640625 21.542969 31.417969 21.148438 31.15625 C 20.753906 30.894531 20.386719 30.59375 20.050781 30.261719 C 19.714844 29.925781 19.417969 29.5625 19.152344 29.167969 C 18.886719 28.773438 18.664062 28.359375 18.484375 27.921875 C 18.300781 27.484375 18.164062 27.035156 18.070312 26.570312 C 17.976562 26.105469 17.929688 25.632812 17.929688 25.160156 " fill-opacity="1" fill-rule="nonzero"/></g></svg>