<svg xmlns="http://www.w3.org/2000/svg" xmlns:xlink="http://www.w3.org/1999/xlink" width="70" zoomAndPan="magnify" viewBox="0 0 52.5 52.499999" height="70" preserveAspectRatio="xMidYMid meet" version="1.0"><defs><clipPath id="54c275cd45"><path d="M 4.160156 4.160156 L 46.507812 4.160156 L 46.507812 46.507812 L 4.160156 46.507812 Z M 4.160156 4.160156 " clip-rule="nonzero"/></clipPath><clipPath id="7d699de15f"><path d="M 16 12 L 35 12 L 35 46.507812 L 16 46.507812 Z M 16 12 " clip-rule="nonzero"/></clipPath></defs><g clip-path="url(#54c275cd45)"><path fill="#bdaa8c" d="M 46.796875 25.480469 C 46.796875 13.703125 37.253906 4.160156 25.480469 4.160156 C 13.703125 4.160156 4.160156 13.703125 4.160156 25.480469 C 4.160156 36.121094 11.957031 44.9375 22.148438 46.539062 L 22.148438 31.640625 L 16.734375 31.640625 L 16.734375 25.480469 L 22.148438 25.480469 L 22.148438 20.78125 C 22.148438 15.4375 25.332031 12.488281 30.199219 12.488281 C 32.53125 12.488281 34.972656 12.902344 34.972656 12.902344 L 34.972656 18.152344 L 32.285156 18.152344 C 29.636719 18.152344 28.808594 19.792969 28.808594 21.480469 L 28.808594 25.480469 L 34.722656 25.480469 L 33.777344 31.640625 L 28.808594 31.640625 L 28.808594 46.539062 C 39 44.9375 46.796875 36.121094 46.796875 25.480469 " fill-opacity="1" fill-rule="nonzero"/></g><g clip-path="url(#7d699de15f)"><path fill="#ffffff" d="M 33.777344 31.640625 L 34.722656 25.480469 L 28.808594 25.480469 L 28.808594 21.480469 C 28.808594 19.792969 29.636719 18.152344 32.285156 18.152344 L 34.972656 18.152344 L 34.972656 12.902344 C 34.972656 12.902344 32.53125 12.488281 30.199219 12.488281 C 25.332031 12.488281 22.148438 15.4375 22.148438 20.78125 L 22.148438 25.480469 L 16.734375 25.480469 L 16.734375 31.640625 L 22.148438 31.640625 L 22.148438 46.539062 C 23.234375 46.707031 24.34375 46.796875 25.480469 46.796875 C 26.613281 46.796875 27.722656 46.707031 28.808594 46.539062 L 28.808594 31.640625 L 33.777344 31.640625 " fill-opacity="1" fill-rule="nonzero"/></g></svg>