<svg xmlns="http://www.w3.org/2000/svg" xmlns:xlink="http://www.w3.org/1999/xlink" width="70" zoomAndPan="magnify" viewBox="0 0 52.5 52.499999" height="70" preserveAspectRatio="xMidYMid meet" version="1.0"><defs><clipPath id="8bb3e92abd"><path d="M 3.085938 3.011719 L 49.148438 3.011719 L 49.148438 49.816406 L 3.085938 49.816406 Z M 3.085938 3.011719 " clip-rule="nonzero"/></clipPath></defs><g clip-path="url(#8bb3e92abd)"><path fill="#bdaa8c" d="M 42.710938 9.785156 C 38.351562 5.421875 32.554688 3.015625 26.375 3.011719 C 13.644531 3.011719 3.285156 13.375 3.28125 26.105469 C 3.277344 30.179688 4.34375 34.152344 6.363281 37.652344 L 3.085938 49.621094 L 15.328125 46.410156 C 18.703125 48.25 22.5 49.21875 26.367188 49.21875 L 26.375 49.21875 C 39.105469 49.21875 49.464844 38.859375 49.472656 26.125 C 49.472656 19.953125 47.074219 14.152344 42.710938 9.789062 Z M 26.375 45.320312 L 26.367188 45.320312 C 22.925781 45.320312 19.546875 44.394531 16.597656 42.644531 L 15.898438 42.226562 L 8.632812 44.132812 L 10.570312 37.050781 L 10.113281 36.324219 C 8.191406 33.265625 7.175781 29.734375 7.179688 26.109375 C 7.183594 15.523438 15.796875 6.914062 26.382812 6.914062 C 31.511719 6.917969 36.332031 8.914062 39.953125 12.542969 C 43.578125 16.171875 45.574219 20.996094 45.570312 26.125 C 45.566406 36.707031 36.957031 45.320312 26.375 45.320312 Z M 36.90625 30.945312 C 36.328125 30.65625 33.492188 29.257812 32.960938 29.066406 C 32.433594 28.875 32.046875 28.777344 31.664062 29.355469 C 31.28125 29.933594 30.171875 31.234375 29.835938 31.617188 C 29.5 32.003906 29.164062 32.050781 28.585938 31.761719 C 28.007812 31.472656 26.148438 30.863281 23.945312 28.898438 C 22.230469 27.367188 21.070312 25.480469 20.734375 24.902344 C 20.398438 24.324219 20.699219 24.011719 20.988281 23.722656 C 21.246094 23.464844 21.566406 23.050781 21.855469 22.710938 C 22.144531 22.375 22.238281 22.136719 22.429688 21.75 C 22.625 21.363281 22.527344 21.027344 22.382812 20.738281 C 22.238281 20.449219 21.085938 17.609375 20.601562 16.453125 C 20.136719 15.328125 19.660156 15.484375 19.304688 15.464844 C 18.96875 15.449219 18.585938 15.445312 18.199219 15.445312 C 17.8125 15.445312 17.1875 15.589844 16.660156 16.167969 C 16.128906 16.742188 14.640625 18.140625 14.640625 20.980469 C 14.640625 23.820312 16.707031 26.5625 16.996094 26.949219 C 17.285156 27.335938 21.066406 33.164062 26.855469 35.664062 C 28.230469 36.257812 29.304688 36.613281 30.144531 36.878906 C 31.527344 37.320312 32.785156 37.257812 33.777344 37.109375 C 34.886719 36.941406 37.191406 35.710938 37.671875 34.363281 C 38.15625 33.015625 38.15625 31.859375 38.011719 31.621094 C 37.867188 31.378906 37.480469 31.234375 36.902344 30.945312 Z M 36.90625 30.945312 " fill-opacity="1" fill-rule="evenodd"/></g></svg>