<svg xmlns="http://www.w3.org/2000/svg" xmlns:xlink="http://www.w3.org/1999/xlink" width="70" zoomAndPan="magnify" viewBox="0 0 52.5 52.499999" height="70" preserveAspectRatio="xMidYMid meet" version="1.2"><defs><clipPath id="3846c65e30"><path d="M 6.464844 5.199219 L 45.839844 5.199219 L 45.839844 44.574219 L 6.464844 44.574219 Z M 6.464844 5.199219 "/></clipPath></defs><g id="e0a7141389"><g clip-rule="nonzero" clip-path="url(#3846c65e30)"><path style=" stroke:none;fill-rule:nonzero;fill:#a41423;fill-opacity:1;" d="M 26 44.273438 C 25.359375 44.273438 24.722656 44.242188 24.085938 44.179688 C 23.449219 44.117188 22.816406 44.023438 22.1875 43.898438 C 21.5625 43.773438 20.941406 43.617188 20.328125 43.433594 C 19.714844 43.246094 19.113281 43.03125 18.523438 42.785156 C 17.933594 42.542969 17.355469 42.269531 16.789062 41.964844 C 16.226562 41.664062 15.679688 41.335938 15.144531 40.980469 C 14.613281 40.625 14.101562 40.246094 13.605469 39.839844 C 13.113281 39.433594 12.636719 39.003906 12.1875 38.550781 C 11.734375 38.097656 11.304688 37.625 10.898438 37.132812 C 10.492188 36.636719 10.113281 36.121094 9.757812 35.589844 C 9.402344 35.058594 9.070312 34.511719 8.769531 33.945312 C 8.46875 33.382812 8.195312 32.804688 7.949219 32.214844 C 7.707031 31.621094 7.492188 31.019531 7.304688 30.410156 C 7.117188 29.796875 6.964844 29.175781 6.839844 28.546875 C 6.714844 27.921875 6.621094 27.289062 6.558594 26.652344 C 6.496094 26.015625 6.464844 25.375 6.464844 24.738281 C 6.464844 24.097656 6.496094 23.457031 6.558594 22.820312 C 6.621094 22.183594 6.714844 21.554688 6.839844 20.925781 C 6.964844 20.296875 7.117188 19.679688 7.304688 19.066406 C 7.492188 18.453125 7.707031 17.851562 7.949219 17.261719 C 8.195312 16.667969 8.46875 16.09375 8.769531 15.527344 C 9.070312 14.964844 9.402344 14.414062 9.757812 13.882812 C 10.113281 13.351562 10.492188 12.835938 10.898438 12.34375 C 11.304688 11.847656 11.734375 11.375 12.1875 10.921875 C 12.636719 10.46875 13.113281 10.039062 13.605469 9.636719 C 14.101562 9.230469 14.613281 8.847656 15.144531 8.492188 C 15.679688 8.136719 16.226562 7.808594 16.789062 7.507812 C 17.355469 7.207031 17.933594 6.933594 18.523438 6.6875 C 19.113281 6.441406 19.714844 6.226562 20.328125 6.042969 C 20.941406 5.855469 21.5625 5.699219 22.1875 5.574219 C 22.816406 5.449219 23.449219 5.355469 24.085938 5.292969 C 24.722656 5.230469 25.359375 5.199219 26 5.199219 C 26.640625 5.199219 27.277344 5.230469 27.914062 5.292969 C 28.550781 5.355469 29.183594 5.449219 29.8125 5.574219 C 30.4375 5.699219 31.058594 5.855469 31.671875 6.042969 C 32.285156 6.226562 32.886719 6.441406 33.476562 6.6875 C 34.066406 6.933594 34.644531 7.207031 35.210938 7.507812 C 35.773438 7.808594 36.320312 8.136719 36.855469 8.492188 C 37.386719 8.847656 37.898438 9.230469 38.394531 9.636719 C 38.886719 10.039062 39.363281 10.46875 39.816406 10.921875 C 40.265625 11.375 40.695312 11.847656 41.101562 12.34375 C 41.507812 12.835938 41.886719 13.351562 42.242188 13.882812 C 42.597656 14.414062 42.929688 14.964844 43.230469 15.527344 C 43.53125 16.09375 43.804688 16.667969 44.050781 17.261719 C 44.292969 17.851562 44.507812 18.453125 44.695312 19.066406 C 44.882812 19.679688 45.035156 20.296875 45.160156 20.925781 C 45.285156 21.554688 45.378906 22.183594 45.441406 22.820312 C 45.503906 23.457031 45.535156 24.097656 45.535156 24.738281 C 45.535156 25.375 45.503906 26.015625 45.441406 26.652344 C 45.378906 27.289062 45.28125 27.917969 45.15625 28.546875 C 45.03125 29.175781 44.875 29.792969 44.691406 30.40625 C 44.503906 31.019531 44.289062 31.617188 44.042969 32.210938 C 43.796875 32.800781 43.523438 33.378906 43.222656 33.941406 C 42.921875 34.507812 42.59375 35.054688 42.238281 35.585938 C 41.882812 36.117188 41.5 36.628906 41.09375 37.125 C 40.6875 37.621094 40.261719 38.09375 39.808594 38.542969 C 39.355469 38.996094 38.882812 39.425781 38.386719 39.832031 C 37.894531 40.238281 37.378906 40.617188 36.847656 40.972656 C 36.316406 41.328125 35.769531 41.660156 35.203125 41.960938 C 34.640625 42.261719 34.0625 42.535156 33.472656 42.78125 C 32.882812 43.027344 32.28125 43.242188 31.667969 43.425781 C 31.058594 43.613281 30.4375 43.769531 29.808594 43.894531 C 29.183594 44.019531 28.550781 44.113281 27.914062 44.175781 C 27.277344 44.242188 26.640625 44.273438 26 44.273438 Z M 26 7.257812 C 25.425781 7.257812 24.855469 7.285156 24.285156 7.339844 C 23.71875 7.398438 23.152344 7.480469 22.589844 7.59375 C 22.027344 7.703125 21.472656 7.84375 20.925781 8.007812 C 20.378906 8.175781 19.839844 8.367188 19.3125 8.585938 C 18.78125 8.804688 18.265625 9.050781 17.761719 9.320312 C 17.253906 9.589844 16.765625 9.886719 16.289062 10.203125 C 15.8125 10.519531 15.351562 10.863281 14.910156 11.226562 C 14.46875 11.589844 14.042969 11.972656 13.640625 12.375 C 13.234375 12.78125 12.851562 13.207031 12.488281 13.648438 C 12.125 14.089844 11.785156 14.550781 11.464844 15.027344 C 11.148438 15.5 10.855469 15.992188 10.582031 16.496094 C 10.3125 17 10.070312 17.519531 9.851562 18.046875 C 9.632812 18.578125 9.4375 19.113281 9.273438 19.664062 C 9.105469 20.210938 8.96875 20.765625 8.855469 21.328125 C 8.742188 21.886719 8.660156 22.453125 8.605469 23.023438 C 8.546875 23.59375 8.519531 24.164062 8.519531 24.738281 C 8.519531 25.308594 8.546875 25.878906 8.605469 26.449219 C 8.660156 27.019531 8.742188 27.585938 8.855469 28.148438 C 8.96875 28.707031 9.105469 29.261719 9.273438 29.8125 C 9.4375 30.359375 9.632812 30.898438 9.851562 31.425781 C 10.070312 31.957031 10.3125 32.472656 10.582031 32.976562 C 10.855469 33.480469 11.148438 33.972656 11.464844 34.449219 C 11.785156 34.925781 12.125 35.382812 12.488281 35.828125 C 12.851562 36.269531 13.234375 36.691406 13.640625 37.097656 C 14.042969 37.503906 14.46875 37.886719 14.910156 38.25 C 15.351562 38.613281 15.8125 38.953125 16.289062 39.269531 C 16.765625 39.589844 17.253906 39.882812 17.761719 40.152344 C 18.265625 40.421875 18.78125 40.667969 19.3125 40.886719 C 19.839844 41.105469 20.378906 41.296875 20.925781 41.464844 C 21.472656 41.628906 22.027344 41.769531 22.589844 41.882812 C 23.152344 41.992188 23.71875 42.078125 24.285156 42.132812 C 24.855469 42.1875 25.425781 42.21875 26 42.21875 C 26.574219 42.21875 27.144531 42.1875 27.714844 42.132812 C 28.28125 42.078125 28.847656 41.992188 29.410156 41.882812 C 29.972656 41.769531 30.527344 41.628906 31.074219 41.464844 C 31.621094 41.296875 32.160156 41.105469 32.6875 40.886719 C 33.21875 40.667969 33.734375 40.421875 34.238281 40.152344 C 34.746094 39.882812 35.234375 39.589844 35.710938 39.269531 C 36.1875 38.953125 36.648438 38.613281 37.089844 38.25 C 37.53125 37.886719 37.957031 37.503906 38.359375 37.097656 C 38.765625 36.691406 39.148438 36.269531 39.511719 35.828125 C 39.875 35.382812 40.214844 34.925781 40.535156 34.449219 C 40.851562 33.972656 41.144531 33.480469 41.417969 32.976562 C 41.6875 32.472656 41.929688 31.957031 42.148438 31.425781 C 42.367188 30.898438 42.5625 30.359375 42.726562 29.8125 C 42.894531 29.261719 43.03125 28.707031 43.144531 28.148438 C 43.257812 27.585938 43.339844 27.019531 43.394531 26.449219 C 43.453125 25.878906 43.480469 25.308594 43.480469 24.738281 C 43.480469 24.164062 43.449219 23.59375 43.394531 23.023438 C 43.335938 22.453125 43.253906 21.890625 43.140625 21.328125 C 43.027344 20.765625 42.890625 20.210938 42.722656 19.664062 C 42.554688 19.117188 42.363281 18.578125 42.144531 18.050781 C 41.925781 17.523438 41.679688 17.003906 41.410156 16.5 C 41.140625 15.996094 40.847656 15.507812 40.527344 15.03125 C 40.210938 14.554688 39.871094 14.09375 39.507812 13.652344 C 39.144531 13.210938 38.757812 12.789062 38.355469 12.382812 C 37.949219 11.976562 37.527344 11.59375 37.082031 11.230469 C 36.640625 10.867188 36.183594 10.527344 35.707031 10.210938 C 35.230469 9.890625 34.742188 9.597656 34.234375 9.328125 C 33.730469 9.058594 33.214844 8.8125 32.6875 8.59375 C 32.15625 8.375 31.621094 8.179688 31.070312 8.015625 C 30.523438 7.847656 29.96875 7.707031 29.410156 7.597656 C 28.847656 7.484375 28.28125 7.398438 27.710938 7.34375 C 27.144531 7.285156 26.574219 7.257812 26 7.257812 Z M 22.09375 33.429688 C 21.808594 33.425781 21.566406 33.328125 21.363281 33.125 L 14.742188 26.5 C 14.640625 26.402344 14.566406 26.292969 14.511719 26.164062 C 14.457031 26.039062 14.429688 25.90625 14.425781 25.769531 C 14.425781 25.632812 14.453125 25.5 14.503906 25.371094 C 14.554688 25.242188 14.628906 25.128906 14.726562 25.03125 C 14.824219 24.933594 14.9375 24.859375 15.066406 24.808594 C 15.195312 24.757812 15.324219 24.730469 15.464844 24.730469 C 15.601562 24.734375 15.734375 24.761719 15.859375 24.816406 C 15.988281 24.871094 16.097656 24.945312 16.195312 25.046875 L 22.09375 30.945312 L 35.582031 17.453125 C 35.78125 17.261719 36.023438 17.164062 36.304688 17.167969 C 36.585938 17.167969 36.824219 17.269531 37.023438 17.46875 C 37.222656 17.664062 37.320312 17.90625 37.324219 18.1875 C 37.324219 18.464844 37.230469 18.707031 37.035156 18.910156 L 22.820312 33.125 C 22.621094 33.328125 22.378906 33.425781 22.09375 33.429688 Z M 22.09375 33.429688 "/></g></g></svg>