<svg xmlns="http://www.w3.org/2000/svg" xmlns:xlink="http://www.w3.org/1999/xlink" width="70" zoomAndPan="magnify" viewBox="0 0 52.5 52.499999" height="70" preserveAspectRatio="xMidYMid meet" version="1.0"><defs><clipPath id="f17bcd8851"><path d="M 11.632812 5.199219 L 40.609375 5.199219 L 40.609375 46.0625 L 11.632812 46.0625 Z M 11.632812 5.199219 " clip-rule="nonzero"/></clipPath></defs><g clip-path="url(#f17bcd8851)"><path fill="#a41423" d="M 22.804688 32.996094 C 22.28125 31.941406 21.691406 30.839844 21.085938 30.210938 C 19.394531 28.453125 18 28.445312 16.820312 29.054688 C 15.324219 29.828125 15.550781 31.496094 15.945312 32.53125 C 16.382812 33.726562 17.367188 35.652344 18.71875 39.3125 C 19.253906 40.75 20.421875 42.125 21.648438 43.242188 C 23.410156 44.859375 25.28125 45.941406 25.28125 45.941406 C 25.621094 46.136719 26.054688 46.023438 26.238281 45.6875 C 26.4375 45.347656 26.324219 44.917969 25.984375 44.722656 C 25.984375 44.722656 24.238281 43.710938 22.59375 42.203125 C 21.535156 41.234375 20.507812 40.066406 20.042969 38.824219 C 18.691406 35.160156 17.707031 33.234375 17.253906 32.042969 C 17.171875 31.789062 17.070312 31.476562 17.058594 31.160156 C 17.03125 30.835938 17.101562 30.496094 17.464844 30.304688 C 18.199219 29.925781 19.015625 30.09375 20.070312 31.183594 C 20.746094 31.894531 21.367188 33.277344 21.917969 34.398438 C 22.339844 35.285156 22.71875 36.023438 23.015625 36.3125 C 23.015625 36.316406 23.015625 36.316406 23.027344 36.320312 C 23.15625 36.441406 23.324219 36.519531 23.519531 36.519531 C 23.902344 36.515625 24.226562 36.199219 24.210938 35.8125 C 24.210938 35.8125 24.183594 28.789062 24.113281 18.957031 C 24.113281 18.628906 24.238281 18.3125 24.480469 18.078125 C 24.71875 17.84375 25.027344 17.714844 25.367188 17.714844 C 25.691406 17.714844 26.015625 17.84375 26.238281 18.078125 C 26.492188 18.328125 26.589844 18.675781 26.621094 19.027344 C 26.703125 20.066406 26.816406 22.320312 26.914062 24.671875 C 26.902344 24.695312 26.902344 24.722656 26.902344 24.75 C 26.902344 24.785156 26.914062 24.824219 26.914062 24.859375 C 27.054688 28.390625 27.167969 32.058594 27.167969 32.058594 C 27.183594 32.449219 27.507812 32.753906 27.902344 32.742188 C 28.28125 32.726562 28.589844 32.402344 28.578125 32.015625 C 28.578125 32.015625 28.464844 28.261719 28.324219 24.683594 C 28.335938 24.394531 28.492188 24.152344 28.730469 23.941406 C 28.984375 23.695312 29.335938 23.5625 29.71875 23.5625 C 30.082031 23.5625 30.433594 23.695312 30.703125 23.941406 C 30.957031 24.1875 31.054688 24.527344 31.082031 24.871094 C 31.238281 26.644531 31.421875 32.078125 31.421875 32.078125 C 31.421875 32.464844 31.746094 32.773438 32.140625 32.757812 C 32.535156 32.746094 32.828125 32.421875 32.828125 32.03125 C 32.828125 32.03125 32.703125 28.320312 32.574219 26.003906 C 32.785156 25.613281 33.195312 25.34375 33.675781 25.34375 C 34.378906 25.34375 34.898438 25.929688 34.925781 26.632812 C 35.082031 29.640625 35.152344 32.277344 35.152344 32.277344 C 35.167969 32.664062 35.492188 32.972656 35.871094 32.960938 C 36.265625 32.953125 36.574219 32.628906 36.5625 32.242188 C 36.5625 32.242188 36.503906 30.304688 36.40625 27.847656 C 36.574219 27.46875 36.914062 27.207031 37.40625 27.199219 C 37.8125 27.230469 38.109375 27.355469 38.308594 27.578125 C 38.53125 27.820312 38.628906 28.15625 38.6875 28.535156 C 38.8125 29.570312 38.882812 32.738281 38.882812 32.875 C 38.898438 34.957031 38.96875 36.707031 38.882812 37.46875 C 38.589844 40.175781 35.589844 44.960938 35.589844 44.960938 C 35.390625 45.292969 35.492188 45.726562 35.8125 45.929688 C 36.152344 46.136719 36.589844 46.035156 36.785156 45.703125 C 36.785156 45.703125 39.96875 40.535156 40.292969 37.621094 C 40.375 36.832031 40.304688 35.015625 40.292969 32.859375 L 40.292969 32.847656 C 40.292969 32.8125 40.207031 29.449219 40.082031 28.363281 C 39.996094 27.667969 39.757812 27.070312 39.347656 26.628906 C 38.925781 26.167969 38.335938 25.851562 37.492188 25.792969 C 37.476562 25.792969 37.449219 25.789062 37.433594 25.789062 C 36.984375 25.789062 36.601562 25.882812 36.265625 26.046875 C 35.984375 24.835938 34.957031 23.9375 33.675781 23.9375 C 33.222656 23.9375 32.785156 24.050781 32.421875 24.253906 C 32.292969 23.75 32.054688 23.285156 31.660156 22.917969 C 31.152344 22.429688 30.449219 22.152344 29.71875 22.152344 C 29.183594 22.152344 28.660156 22.296875 28.222656 22.5625 C 28.152344 20.996094 28.082031 19.640625 28.011719 18.902344 C 27.957031 18.21875 27.730469 17.566406 27.238281 17.082031 C 26.746094 16.585938 26.070312 16.304688 25.367188 16.304688 C 24.660156 16.304688 23.984375 16.585938 23.480469 17.082031 C 22.988281 17.582031 22.703125 18.261719 22.703125 18.96875 C 22.746094 25.054688 22.773438 30.0625 22.804688 32.996094 Z M 21.410156 21.332031 C 20.972656 20.621094 20.71875 19.78125 20.71875 18.886719 C 20.71875 16.296875 22.832031 14.191406 25.421875 14.191406 C 28.011719 14.191406 30.113281 16.296875 30.113281 18.886719 C 30.113281 19.226562 30.070312 19.5625 30 19.882812 C 29.984375 20.003906 29.941406 20.121094 29.914062 20.238281 C 29.800781 20.609375 30.011719 21.003906 30.378906 21.117188 C 30.757812 21.226562 31.152344 21.015625 31.265625 20.644531 C 31.308594 20.492188 31.351562 20.335938 31.378906 20.179688 C 31.476562 19.761719 31.519531 19.332031 31.519531 18.886719 C 31.519531 15.519531 28.789062 12.785156 25.421875 12.785156 C 22.042969 12.785156 19.3125 15.519531 19.3125 18.886719 C 19.3125 20.050781 19.648438 21.140625 20.210938 22.070312 C 20.410156 22.402344 20.847656 22.503906 21.183594 22.300781 C 21.507812 22.097656 21.621094 21.664062 21.410156 21.332031 Z M 34.816406 19.589844 L 38.320312 19.589844 C 38.714844 19.589844 39.023438 19.273438 39.023438 18.886719 C 39.023438 18.496094 38.714844 18.183594 38.320312 18.183594 L 34.816406 18.183594 C 34.433594 18.183594 34.109375 18.496094 34.109375 18.886719 C 34.109375 19.273438 34.433594 19.589844 34.816406 19.589844 Z M 15.875 18.183594 L 12.367188 18.183594 C 11.976562 18.183594 11.664062 18.496094 11.664062 18.886719 C 11.664062 19.273438 11.976562 19.589844 12.367188 19.589844 L 15.875 19.589844 C 16.269531 19.589844 16.578125 19.273438 16.578125 18.886719 C 16.578125 18.496094 16.269531 18.183594 15.875 18.183594 Z M 32.546875 12.6875 L 35.027344 10.203125 C 35.292969 9.929688 35.292969 9.484375 35.027344 9.210938 C 34.742188 8.933594 34.308594 8.933594 34.027344 9.210938 L 31.546875 11.691406 C 31.265625 11.964844 31.265625 12.414062 31.546875 12.6875 C 31.816406 12.960938 32.265625 12.960938 32.546875 12.6875 Z M 19.140625 11.691406 L 16.664062 9.210938 C 16.382812 8.933594 15.945312 8.933594 15.664062 9.210938 C 15.394531 9.484375 15.394531 9.929688 15.664062 10.203125 L 18.15625 12.6875 C 18.425781 12.960938 18.875 12.960938 19.140625 12.6875 C 19.421875 12.414062 19.421875 11.964844 19.140625 11.691406 Z M 26.054688 9.414062 L 26.054688 5.90625 C 26.054688 5.515625 25.730469 5.199219 25.351562 5.199219 C 24.957031 5.199219 24.648438 5.515625 24.648438 5.90625 L 24.648438 9.414062 C 24.648438 9.804688 24.957031 10.117188 25.351562 10.117188 C 25.730469 10.117188 26.054688 9.804688 26.054688 9.414062 Z M 26.054688 9.414062 " fill-opacity="1" fill-rule="evenodd"/></g></svg>