<svg xmlns="http://www.w3.org/2000/svg" xmlns:xlink="http://www.w3.org/1999/xlink" width="70" zoomAndPan="magnify" viewBox="0 0 52.5 52.499999" height="70" preserveAspectRatio="xMidYMid meet" version="1.2"><defs><clipPath id="04f2672540"><path d="M 7.265625 15.691406 L 44.410156 15.691406 L 44.410156 37.980469 L 7.265625 37.980469 Z M 7.265625 15.691406 "/></clipPath></defs><g id="3ce9141266"><g clip-rule="nonzero" clip-path="url(#04f2672540)"><path style=" stroke:none;fill-rule:nonzero;fill:#ffffff;fill-opacity:1;" d="M 25.839844 19.832031 C 21.980469 19.832031 18.835938 22.972656 18.835938 26.832031 C 18.835938 30.691406 21.980469 33.832031 25.839844 33.832031 C 29.695312 33.832031 32.839844 30.691406 32.839844 26.832031 C 32.839844 22.972656 29.695312 19.832031 25.839844 19.832031 Z M 25.839844 32.1875 C 22.886719 32.1875 20.484375 29.785156 20.484375 26.832031 C 20.484375 23.878906 22.886719 21.480469 25.839844 21.480469 C 28.792969 21.480469 31.191406 23.878906 31.191406 26.832031 C 31.191406 29.785156 28.792969 32.1875 25.839844 32.1875 Z M 26.664062 23.949219 C 26.664062 24.402344 26.292969 24.773438 25.839844 24.773438 C 24.703125 24.773438 23.78125 25.695312 23.78125 26.832031 C 23.78125 27.285156 23.410156 27.65625 22.957031 27.65625 C 22.503906 27.65625 22.132812 27.285156 22.132812 26.832031 C 22.132812 24.789062 23.796875 23.125 25.839844 23.125 C 26.292969 23.125 26.664062 23.496094 26.664062 23.949219 Z M 44.257812 26.421875 C 40.460938 19.816406 33.402344 15.714844 25.839844 15.714844 C 18.273438 15.714844 11.214844 19.816406 7.417969 26.421875 C 7.273438 26.675781 7.273438 26.988281 7.417969 27.238281 C 11.214844 33.851562 18.273438 37.953125 25.839844 37.953125 C 33.402344 37.953125 40.460938 33.851562 44.257812 27.246094 C 44.40625 26.988281 44.40625 26.675781 44.257812 26.421875 Z M 25.839844 36.304688 C 19.019531 36.304688 12.644531 32.6875 9.085938 26.832031 C 12.644531 20.976562 19.019531 17.359375 25.839844 17.359375 C 32.660156 17.359375 39.035156 20.976562 42.589844 26.832031 C 39.035156 32.6875 32.660156 36.304688 25.839844 36.304688 Z M 25.839844 36.304688 "/></g></g></svg>