<svg xmlns="http://www.w3.org/2000/svg" xmlns:xlink="http://www.w3.org/1999/xlink" width="70" zoomAndPan="magnify" viewBox="0 0 52.5 52.499999" height="70" preserveAspectRatio="xMidYMid meet" version="1.2"><defs><clipPath id="dec6f18359"><path d="M 6.433594 1.539062 L 45.808594 1.539062 L 45.808594 50.574219 L 6.433594 50.574219 Z M 6.433594 1.539062 "/></clipPath></defs><g id="bcfc4d22b5"><g clip-rule="nonzero" clip-path="url(#dec6f18359)"><path style=" stroke:none;fill-rule:nonzero;fill:#ffffff;fill-opacity:1;" d="M 39.507812 32.835938 L 39.507812 13.269531 C 39.507812 13.1875 39.507812 13.105469 39.425781 13.023438 C 39.425781 12.941406 39.34375 12.859375 39.34375 12.859375 L 27.964844 1.890625 C 27.964844 1.890625 27.882812 1.808594 27.882812 1.808594 C 27.882812 1.808594 27.800781 1.726562 27.800781 1.726562 C 27.71875 1.726562 27.636719 1.644531 27.554688 1.644531 L 9.378906 1.644531 C 7.742188 1.644531 6.433594 2.953125 6.433594 4.589844 L 6.433594 42.414062 C 6.433594 44.050781 7.742188 45.359375 9.378906 45.359375 L 28.453125 45.359375 C 29.929688 48.308594 33.039062 50.351562 36.476562 50.351562 C 41.46875 50.351562 45.5625 46.261719 45.5625 41.265625 C 45.5625 37.417969 43.027344 34.0625 39.507812 32.835938 Z M 28.125 3.773438 L 37.378906 12.695312 L 29.847656 12.695312 C 28.863281 12.695312 28.125 11.878906 28.125 10.976562 Z M 27.964844 44.214844 L 9.378906 44.214844 C 8.398438 44.214844 7.660156 43.394531 7.660156 42.496094 L 7.660156 4.671875 C 7.660156 3.691406 8.480469 2.953125 9.378906 2.953125 L 26.898438 2.953125 L 26.898438 10.894531 C 26.898438 12.53125 28.207031 13.84375 29.847656 13.84375 L 38.277344 13.84375 L 38.277344 32.425781 C 37.703125 32.34375 37.132812 32.261719 36.558594 32.261719 C 31.566406 32.261719 27.472656 36.355469 27.472656 41.347656 C 27.472656 42.332031 27.636719 43.3125 27.964844 44.214844 Z M 36.558594 49.125 C 33.449219 49.125 30.664062 47.242188 29.4375 44.539062 L 29.4375 44.460938 C 29.027344 43.476562 28.78125 42.414062 28.78125 41.265625 C 28.78125 36.925781 32.300781 33.40625 36.640625 33.40625 C 40.980469 33.40625 44.5 36.925781 44.5 41.265625 C 44.335938 45.6875 40.898438 49.125 36.558594 49.125 Z M 36.558594 49.125 "/></g><path style=" stroke:none;fill-rule:nonzero;fill:#ffffff;fill-opacity:1;" d="M 10.933594 20.390625 L 33.9375 20.390625 C 34.265625 20.390625 34.59375 20.144531 34.59375 19.734375 C 34.59375 19.328125 34.347656 19.082031 33.9375 19.082031 L 10.933594 19.082031 C 10.609375 19.082031 10.28125 19.328125 10.28125 19.734375 C 10.28125 20.144531 10.609375 20.390625 10.933594 20.390625 Z M 10.933594 20.390625 "/><path style=" stroke:none;fill-rule:nonzero;fill:#ffffff;fill-opacity:1;" d="M 34.59375 24.484375 C 34.59375 24.15625 34.347656 23.828125 33.9375 23.828125 L 10.933594 23.828125 C 10.609375 23.828125 10.28125 24.074219 10.28125 24.484375 C 10.28125 24.894531 10.527344 25.140625 10.933594 25.140625 L 33.9375 25.140625 C 34.347656 25.058594 34.59375 24.8125 34.59375 24.484375 Z M 34.59375 24.484375 "/><path style=" stroke:none;fill-rule:nonzero;fill:#ffffff;fill-opacity:1;" d="M 22.96875 28.496094 L 10.933594 28.496094 C 10.609375 28.496094 10.28125 28.742188 10.28125 29.152344 C 10.28125 29.558594 10.527344 29.804688 10.933594 29.804688 L 22.886719 29.804688 C 23.214844 29.804688 23.542969 29.558594 23.542969 29.152344 C 23.542969 28.742188 23.296875 28.496094 22.96875 28.496094 Z M 22.96875 28.496094 "/><path style=" stroke:none;fill-rule:nonzero;fill:#ffffff;fill-opacity:1;" d="M 41.46875 39.136719 L 38.359375 38.890625 L 37.050781 35.945312 C 36.886719 35.535156 36.148438 35.535156 35.902344 35.945312 L 34.59375 38.890625 L 31.648438 39.136719 C 31.402344 39.136719 31.238281 39.300781 31.15625 39.546875 C 31.074219 39.792969 31.15625 40.039062 31.320312 40.203125 L 33.613281 42.414062 L 33.039062 45.359375 C 32.957031 45.605469 33.121094 45.851562 33.285156 45.933594 C 33.449219 46.097656 33.695312 46.097656 33.9375 46.015625 L 36.640625 44.621094 L 39.34375 46.015625 C 39.425781 46.097656 39.507812 46.097656 39.585938 46.097656 C 39.75 46.097656 39.832031 46.015625 39.996094 45.933594 C 40.160156 45.769531 40.242188 45.523438 40.242188 45.359375 L 39.585938 42.414062 L 41.878906 40.203125 C 42.042969 40.039062 42.125 39.792969 42.042969 39.546875 C 41.960938 39.300781 41.714844 39.136719 41.46875 39.136719 Z M 38.523438 41.839844 C 38.359375 42.003906 38.277344 42.167969 38.359375 42.414062 L 38.769531 44.460938 L 36.886719 43.476562 C 36.804688 43.394531 36.722656 43.394531 36.640625 43.394531 C 36.558594 43.394531 36.476562 43.394531 36.394531 43.476562 L 34.511719 44.460938 L 34.921875 42.414062 C 35.003906 42.25 34.921875 42.003906 34.757812 41.839844 L 33.203125 40.285156 L 35.332031 40.121094 C 35.578125 40.121094 35.738281 39.957031 35.820312 39.792969 L 36.722656 37.746094 L 37.621094 39.792969 C 37.703125 39.957031 37.867188 40.121094 38.113281 40.121094 L 40.242188 40.285156 Z M 38.523438 41.839844 "/></g></svg>