<svg xmlns="http://www.w3.org/2000/svg" xmlns:xlink="http://www.w3.org/1999/xlink" width="70" zoomAndPan="magnify" viewBox="0 0 52.5 52.499999" height="70" preserveAspectRatio="xMidYMid meet" version="1.2"><defs><clipPath id="2ea2860130"><path d="M 1.820312 2.027344 L 47.882812 2.027344 L 47.882812 50 L 1.820312 50 Z M 1.820312 2.027344 "/></clipPath></defs><g id="9deb55156e"><g clip-rule="nonzero" clip-path="url(#2ea2860130)"><path style=" stroke:none;fill-rule:evenodd;fill:#ffffff;fill-opacity:1;" d="M 7.160156 24.144531 L 5.832031 24.144531 C 3.636719 24.144531 1.851562 25.925781 1.851562 28.125 L 1.851562 47.140625 C 1.851562 48.605469 3.039062 49.792969 4.507812 49.792969 C 11.617188 49.792969 38.078125 49.792969 45.191406 49.792969 C 45.894531 49.792969 46.570312 49.511719 47.066406 49.015625 C 47.5625 48.519531 47.84375 47.84375 47.84375 47.140625 C 47.84375 43.75 47.84375 36.378906 47.84375 32.988281 C 47.84375 32.285156 47.5625 31.609375 47.066406 31.113281 C 46.570312 30.617188 45.894531 30.335938 45.191406 30.335938 L 43.421875 30.335938 L 43.421875 13.53125 C 43.421875 13.339844 43.359375 13.152344 43.246094 13 L 35.285156 2.386719 C 35.117188 2.164062 34.855469 2.035156 34.578125 2.035156 L 9.8125 2.035156 C 9.109375 2.035156 8.433594 2.3125 7.9375 2.8125 C 7.4375 3.308594 7.160156 3.984375 7.160156 4.6875 Z M 45.191406 32.105469 L 5.832031 32.105469 C 5.039062 32.105469 4.269531 31.867188 3.621094 31.433594 L 3.621094 47.140625 C 3.621094 47.628906 4.019531 48.023438 4.507812 48.023438 C 11.617188 48.023438 38.078125 48.023438 45.191406 48.023438 C 45.425781 48.023438 45.648438 47.929688 45.816406 47.765625 C 45.980469 47.597656 46.074219 47.375 46.074219 47.140625 L 46.074219 32.988281 C 46.074219 32.753906 45.980469 32.53125 45.816406 32.363281 C 45.648438 32.199219 45.425781 32.105469 45.191406 32.105469 Z M 30.265625 42.28125 L 30.265625 42.71875 C 30.265625 43.421875 30.542969 44.097656 31.042969 44.59375 C 31.539062 45.089844 32.214844 45.371094 32.917969 45.371094 C 33.554688 45.371094 34.273438 45.371094 34.910156 45.371094 C 35.613281 45.371094 36.289062 45.089844 36.785156 44.59375 C 37.28125 44.097656 37.5625 43.421875 37.5625 42.71875 C 37.5625 42.601562 37.5625 42.484375 37.5625 42.367188 C 37.5625 41.28125 36.902344 40.308594 35.894531 39.902344 L 32.679688 38.617188 C 32.289062 38.460938 32.035156 38.085938 32.035156 37.667969 L 32.035156 37.410156 C 32.035156 37.175781 32.128906 36.953125 32.292969 36.785156 C 32.460938 36.621094 32.683594 36.527344 32.917969 36.527344 C 32.917969 36.527344 34.910156 36.527344 34.910156 36.527344 C 35.144531 36.527344 35.367188 36.621094 35.535156 36.785156 C 35.699219 36.953125 35.792969 37.175781 35.792969 37.410156 C 35.792969 37.410156 35.792969 37.703125 35.792969 37.847656 C 35.792969 38.097656 35.902344 38.324219 36.015625 38.4375 C 36.1875 38.632812 36.433594 38.738281 36.675781 38.738281 C 37.109375 38.738281 37.5625 38.40625 37.5625 37.847656 L 37.5625 37.410156 C 37.5625 36.707031 37.28125 36.03125 36.785156 35.535156 C 36.289062 35.039062 35.613281 34.757812 34.910156 34.757812 L 32.917969 34.757812 C 32.214844 34.757812 31.539062 35.039062 31.042969 35.535156 C 30.546875 36.03125 30.265625 36.707031 30.265625 37.410156 C 30.265625 37.496094 30.265625 37.582031 30.265625 37.667969 C 30.265625 38.808594 30.960938 39.835938 32.019531 40.261719 L 35.238281 41.546875 C 35.574219 41.679688 35.792969 42.007812 35.792969 42.367188 L 35.792969 42.71875 C 35.792969 42.953125 35.699219 43.179688 35.535156 43.34375 C 35.367188 43.507812 35.144531 43.601562 34.910156 43.601562 L 32.917969 43.601562 C 32.683594 43.601562 32.457031 43.507812 32.292969 43.34375 C 32.128906 43.179688 32.035156 42.953125 32.035156 42.71875 C 32.035156 42.71875 32.035156 42.71875 32.035156 42.28125 C 32.035156 41.699219 31.558594 41.390625 31.164062 41.390625 C 30.792969 41.390625 30.265625 41.679688 30.265625 42.277344 C 30.265625 42.28125 30.265625 42.28125 30.265625 42.28125 Z M 22.527344 35.640625 L 22.527344 44.488281 C 22.527344 44.976562 22.921875 45.371094 23.410156 45.371094 L 28.9375 45.371094 C 29.425781 45.371094 29.824219 44.976562 29.824219 44.488281 C 29.824219 44 29.425781 43.601562 28.9375 43.601562 L 24.296875 43.601562 C 24.296875 43.601562 24.296875 35.640625 24.296875 35.640625 C 24.296875 35.152344 23.898438 34.757812 23.410156 34.757812 C 22.921875 34.757812 22.527344 35.152344 22.527344 35.640625 Z M 15.714844 40.066406 L 12.351562 43.90625 C 12.03125 44.273438 12.070312 44.832031 12.4375 45.152344 C 12.804688 45.472656 13.363281 45.4375 13.683594 45.070312 L 16.886719 41.40625 L 20.09375 45.070312 C 20.414062 45.4375 20.972656 45.472656 21.339844 45.152344 C 21.707031 44.832031 21.746094 44.273438 21.421875 43.90625 L 18.0625 40.066406 L 21.421875 36.226562 C 21.746094 35.859375 21.707031 35.296875 21.339844 34.976562 C 20.972656 34.65625 20.414062 34.691406 20.09375 35.058594 L 16.886719 38.722656 L 13.683594 35.058594 C 13.363281 34.691406 12.804688 34.65625 12.4375 34.976562 C 12.070312 35.296875 12.03125 35.859375 12.351562 36.226562 Z M 33.691406 9.109375 L 33.691406 3.804688 L 9.8125 3.804688 C 9.578125 3.804688 9.351562 3.894531 9.1875 4.0625 C 9.023438 4.226562 8.929688 4.453125 8.929688 4.6875 L 8.929688 30.335938 L 41.652344 30.335938 L 41.652344 14.417969 L 37.230469 14.417969 L 37.230469 16.183594 C 37.230469 16.671875 36.835938 17.070312 36.347656 17.070312 L 26.617188 17.070312 C 26.128906 17.070312 25.734375 16.671875 25.734375 16.183594 L 25.734375 9.992188 C 25.734375 9.503906 26.128906 9.109375 26.617188 9.109375 Z M 7.160156 25.914062 L 5.832031 25.914062 C 4.613281 25.914062 3.621094 26.902344 3.621094 28.125 C 3.621094 28.710938 3.855469 29.273438 4.269531 29.6875 C 4.683594 30.101562 5.246094 30.335938 5.832031 30.335938 L 7.160156 30.335938 Z M 23.964844 19.722656 C 23.964844 19.234375 23.566406 18.839844 23.078125 18.839844 L 13.351562 18.839844 C 12.863281 18.839844 12.464844 19.234375 12.464844 19.722656 L 12.464844 25.914062 C 12.464844 26.402344 12.863281 26.796875 13.351562 26.796875 L 23.078125 26.796875 C 23.566406 26.796875 23.964844 26.402344 23.964844 25.914062 Z M 37.230469 19.722656 C 37.230469 19.234375 36.835938 18.839844 36.347656 18.839844 L 26.617188 18.839844 C 26.128906 18.839844 25.734375 19.234375 25.734375 19.722656 L 25.734375 25.914062 C 25.734375 26.402344 26.128906 26.796875 26.617188 26.796875 L 36.347656 26.796875 C 36.835938 26.796875 37.230469 26.402344 37.230469 25.914062 Z M 35.460938 20.605469 L 35.460938 25.03125 C 35.460938 25.03125 27.5 25.03125 27.5 25.03125 C 27.5 25.03125 27.5 20.605469 27.5 20.605469 Z M 22.195312 20.605469 L 22.195312 25.03125 C 22.195312 25.03125 14.234375 25.03125 14.234375 25.03125 C 14.234375 25.03125 14.234375 20.605469 14.234375 20.605469 Z M 23.964844 9.992188 C 23.964844 9.503906 23.566406 9.109375 23.078125 9.109375 L 13.351562 9.109375 C 12.863281 9.109375 12.464844 9.503906 12.464844 9.992188 L 12.464844 16.183594 C 12.464844 16.671875 12.863281 17.070312 13.351562 17.070312 L 23.078125 17.070312 C 23.566406 17.070312 23.964844 16.671875 23.964844 16.183594 Z M 33.691406 10.878906 L 27.5 10.878906 C 27.5 10.878906 27.5 15.300781 27.5 15.300781 C 27.5 15.300781 35.460938 15.300781 35.460938 15.300781 L 35.460938 14.265625 C 34.429688 13.902344 33.691406 12.917969 33.691406 11.761719 Z M 22.195312 10.878906 L 22.195312 15.300781 C 22.195312 15.300781 14.234375 15.300781 14.234375 15.300781 C 14.234375 15.300781 14.234375 10.878906 14.234375 10.878906 Z M 35.460938 5.570312 L 35.460938 11.761719 C 35.460938 12.25 35.859375 12.648438 36.347656 12.648438 L 40.769531 12.648438 Z M 35.460938 5.570312 "/></g></g></svg>