<svg xmlns="http://www.w3.org/2000/svg" xmlns:xlink="http://www.w3.org/1999/xlink" width="70" zoomAndPan="magnify" viewBox="0 0 52.5 52.499999" height="70" preserveAspectRatio="xMidYMid meet" version="1.0"><defs><clipPath id="597697e09b"><path d="M 4.050781 4.050781 L 47.882812 4.050781 L 47.882812 47.882812 L 4.050781 47.882812 Z M 4.050781 4.050781 " clip-rule="nonzero"/></clipPath></defs><g clip-path="url(#597697e09b)"><path fill="#a41423" d="M 8.039062 26 C 8.039062 26.265625 7.988281 26.519531 7.886719 26.765625 C 7.785156 27.007812 7.644531 27.222656 7.457031 27.410156 C 7.269531 27.597656 7.050781 27.742188 6.808594 27.84375 C 6.5625 27.945312 6.308594 27.996094 6.042969 27.996094 C 5.78125 27.996094 5.523438 27.945312 5.28125 27.84375 C 5.035156 27.742188 4.820312 27.597656 4.632812 27.410156 C 4.445312 27.222656 4.300781 27.007812 4.199219 26.765625 C 4.097656 26.519531 4.050781 26.265625 4.050781 26 C 4.050781 25.28125 4.085938 24.5625 4.15625 23.847656 C 4.226562 23.132812 4.332031 22.421875 4.472656 21.71875 C 4.609375 21.011719 4.785156 20.316406 4.996094 19.628906 C 5.203125 18.941406 5.445312 18.265625 5.71875 17.601562 C 5.996094 16.933594 6.300781 16.285156 6.640625 15.652344 C 6.980469 15.019531 7.347656 14.402344 7.75 13.804688 C 8.148438 13.207031 8.574219 12.628906 9.03125 12.074219 C 9.488281 11.519531 9.96875 10.988281 10.476562 10.476562 C 10.988281 9.96875 11.519531 9.488281 12.074219 9.03125 C 12.628906 8.574219 13.207031 8.148438 13.804688 7.75 C 14.402344 7.347656 15.019531 6.980469 15.652344 6.640625 C 16.285156 6.300781 16.933594 5.996094 17.601562 5.71875 C 18.265625 5.445312 18.941406 5.203125 19.628906 4.996094 C 20.316406 4.785156 21.011719 4.609375 21.71875 4.472656 C 22.421875 4.332031 23.132812 4.226562 23.847656 4.15625 C 24.5625 4.085938 25.28125 4.050781 26 4.050781 C 28.554688 4.046875 31.035156 4.484375 33.433594 5.359375 C 35.835938 6.234375 38.011719 7.492188 39.96875 9.136719 L 39.96875 8.378906 C 39.96875 8.113281 40.019531 7.859375 40.121094 7.617188 C 40.222656 7.371094 40.367188 7.15625 40.554688 6.96875 C 40.742188 6.78125 40.957031 6.636719 41.199219 6.535156 C 41.445312 6.433594 41.699219 6.382812 41.964844 6.382812 C 42.230469 6.382812 42.484375 6.433594 42.726562 6.535156 C 42.972656 6.636719 43.1875 6.78125 43.375 6.96875 C 43.5625 7.15625 43.707031 7.371094 43.808594 7.617188 C 43.910156 7.859375 43.960938 8.113281 43.960938 8.378906 L 43.960938 14.027344 C 43.960938 14.292969 43.910156 14.546875 43.808594 14.789062 C 43.707031 15.035156 43.5625 15.25 43.375 15.4375 C 43.1875 15.625 42.972656 15.769531 42.726562 15.871094 C 42.484375 15.972656 42.230469 16.023438 41.964844 16.023438 L 36.316406 16.023438 C 36.050781 16.023438 35.796875 15.972656 35.554688 15.871094 C 35.308594 15.769531 35.09375 15.625 34.90625 15.4375 C 34.71875 15.25 34.574219 15.035156 34.472656 14.789062 C 34.371094 14.546875 34.320312 14.292969 34.320312 14.027344 C 34.320312 13.761719 34.371094 13.507812 34.472656 13.261719 C 34.574219 13.019531 34.71875 12.804688 34.90625 12.617188 C 35.09375 12.429688 35.308594 12.285156 35.554688 12.183594 C 35.796875 12.082031 36.050781 12.03125 36.316406 12.03125 L 37.253906 12.03125 C 35.667969 10.730469 33.910156 9.738281 31.976562 9.054688 C 30.042969 8.367188 28.050781 8.03125 26 8.039062 C 25.410156 8.039062 24.824219 8.070312 24.238281 8.125 C 23.652344 8.183594 23.074219 8.269531 22.496094 8.386719 C 21.917969 8.5 21.347656 8.644531 20.785156 8.8125 C 20.222656 8.984375 19.671875 9.183594 19.128906 9.40625 C 18.582031 9.632812 18.050781 9.882812 17.535156 10.160156 C 17.015625 10.4375 16.511719 10.738281 16.023438 11.066406 C 15.53125 11.394531 15.0625 11.742188 14.605469 12.117188 C 14.152344 12.488281 13.714844 12.882812 13.300781 13.300781 C 12.882812 13.714844 12.488281 14.152344 12.117188 14.605469 C 11.742188 15.0625 11.394531 15.53125 11.066406 16.023438 C 10.738281 16.511719 10.4375 17.015625 10.160156 17.535156 C 9.882812 18.050781 9.632812 18.582031 9.40625 19.128906 C 9.183594 19.671875 8.984375 20.222656 8.8125 20.785156 C 8.644531 21.347656 8.5 21.917969 8.386719 22.496094 C 8.269531 23.074219 8.183594 23.652344 8.125 24.238281 C 8.070312 24.824219 8.039062 25.410156 8.039062 26 Z M 45.957031 24.003906 C 45.691406 24.003906 45.4375 24.054688 45.191406 24.15625 C 44.949219 24.257812 44.730469 24.402344 44.542969 24.589844 C 44.355469 24.777344 44.214844 24.992188 44.113281 25.238281 C 44.011719 25.480469 43.960938 25.734375 43.960938 26 C 43.960938 26.589844 43.929688 27.175781 43.875 27.761719 C 43.816406 28.347656 43.730469 28.925781 43.613281 29.503906 C 43.5 30.082031 43.359375 30.652344 43.1875 31.214844 C 43.015625 31.777344 42.816406 32.328125 42.59375 32.871094 C 42.367188 33.417969 42.117188 33.949219 41.839844 34.464844 C 41.5625 34.984375 41.261719 35.488281 40.933594 35.976562 C 40.605469 36.46875 40.257812 36.9375 39.882812 37.394531 C 39.511719 37.847656 39.117188 38.285156 38.699219 38.699219 C 38.285156 39.117188 37.847656 39.511719 37.394531 39.882812 C 36.9375 40.257812 36.46875 40.605469 35.976562 40.933594 C 35.488281 41.261719 34.984375 41.5625 34.464844 41.839844 C 33.949219 42.117188 33.417969 42.367188 32.871094 42.59375 C 32.328125 42.816406 31.777344 43.015625 31.214844 43.1875 C 30.652344 43.359375 30.082031 43.5 29.503906 43.613281 C 28.925781 43.730469 28.347656 43.816406 27.761719 43.875 C 27.175781 43.929688 26.589844 43.960938 26 43.960938 C 23.957031 43.964844 21.972656 43.625 20.046875 42.9375 C 18.121094 42.253906 16.367188 41.261719 14.785156 39.96875 L 15.683594 39.96875 C 15.949219 39.96875 16.203125 39.917969 16.445312 39.816406 C 16.691406 39.714844 16.90625 39.570312 17.09375 39.382812 C 17.28125 39.199219 17.425781 38.980469 17.527344 38.738281 C 17.628906 38.492188 17.679688 38.238281 17.679688 37.972656 C 17.679688 37.707031 17.628906 37.453125 17.527344 37.210938 C 17.425781 36.964844 17.28125 36.75 17.09375 36.5625 C 16.90625 36.375 16.691406 36.230469 16.445312 36.128906 C 16.203125 36.027344 15.949219 35.976562 15.683594 35.976562 L 10.035156 35.976562 C 9.769531 35.976562 9.515625 36.027344 9.273438 36.128906 C 9.027344 36.230469 8.8125 36.375 8.625 36.5625 C 8.4375 36.75 8.292969 36.964844 8.191406 37.210938 C 8.089844 37.453125 8.039062 37.707031 8.039062 37.972656 L 8.039062 43.621094 C 8.039062 43.886719 8.089844 44.140625 8.191406 44.382812 C 8.292969 44.628906 8.4375 44.84375 8.625 45.03125 C 8.8125 45.21875 9.027344 45.363281 9.273438 45.464844 C 9.515625 45.566406 9.769531 45.617188 10.035156 45.617188 C 10.300781 45.617188 10.554688 45.566406 10.800781 45.464844 C 11.042969 45.363281 11.257812 45.21875 11.445312 45.03125 C 11.632812 44.84375 11.777344 44.628906 11.878906 44.382812 C 11.980469 44.140625 12.03125 43.886719 12.03125 43.621094 L 12.03125 42.863281 C 13.988281 44.507812 16.164062 45.765625 18.566406 46.640625 C 20.964844 47.515625 23.445312 47.953125 26 47.949219 C 26.71875 47.949219 27.4375 47.914062 28.152344 47.84375 C 28.867188 47.773438 29.578125 47.667969 30.28125 47.53125 C 30.988281 47.390625 31.683594 47.214844 32.371094 47.007812 C 33.058594 46.796875 33.734375 46.554688 34.398438 46.28125 C 35.066406 46.003906 35.714844 45.699219 36.347656 45.359375 C 36.980469 45.019531 37.597656 44.652344 38.195312 44.25 C 38.792969 43.851562 39.371094 43.425781 39.925781 42.96875 C 40.480469 42.511719 41.011719 42.03125 41.523438 41.523438 C 42.03125 41.011719 42.511719 40.480469 42.96875 39.925781 C 43.425781 39.371094 43.851562 38.792969 44.25 38.195312 C 44.652344 37.597656 45.019531 36.980469 45.359375 36.347656 C 45.699219 35.714844 46.003906 35.066406 46.28125 34.398438 C 46.554688 33.734375 46.796875 33.058594 47.007812 32.371094 C 47.214844 31.683594 47.390625 30.988281 47.53125 30.28125 C 47.667969 29.578125 47.773438 28.867188 47.84375 28.152344 C 47.914062 27.4375 47.949219 26.71875 47.949219 26 C 47.949219 25.734375 47.902344 25.480469 47.800781 25.238281 C 47.699219 24.992188 47.554688 24.777344 47.367188 24.589844 C 47.179688 24.402344 46.964844 24.257812 46.71875 24.15625 C 46.476562 24.054688 46.21875 24.003906 45.957031 24.003906 Z M 32.726562 20.011719 L 24.625 27.996094 L 21.269531 24.582031 C 21.082031 24.398438 20.867188 24.253906 20.625 24.152344 C 20.382812 24.054688 20.128906 24.003906 19.863281 24.003906 C 19.601562 24.003906 19.347656 24.054688 19.101562 24.152344 C 18.859375 24.253906 18.644531 24.398438 18.457031 24.582031 C 18.269531 24.769531 18.121094 24.988281 18.019531 25.234375 C 17.917969 25.476562 17.867188 25.734375 17.867188 26 C 17.867188 26.265625 17.917969 26.523438 18.019531 26.765625 C 18.121094 27.011719 18.269531 27.230469 18.457031 27.417969 L 23.207031 32.066406 C 23.597656 32.441406 24.0625 32.628906 24.601562 32.625 C 25.144531 32.628906 25.609375 32.441406 26 32.066406 L 35.5 22.746094 C 35.617188 22.554688 35.703125 22.347656 35.753906 22.125 C 35.804688 21.90625 35.8125 21.683594 35.789062 21.457031 C 35.761719 21.230469 35.699219 21.015625 35.597656 20.8125 C 35.5 20.609375 35.367188 20.429688 35.207031 20.269531 C 35.046875 20.109375 34.863281 19.984375 34.65625 19.886719 C 34.453125 19.789062 34.238281 19.730469 34.011719 19.707031 C 33.785156 19.683594 33.5625 19.699219 33.339844 19.75 C 33.121094 19.804688 32.914062 19.890625 32.726562 20.011719 Z M 32.726562 20.011719 " fill-opacity="1" fill-rule="nonzero"/></g></svg>