<svg xmlns="http://www.w3.org/2000/svg" xmlns:xlink="http://www.w3.org/1999/xlink" width="70" zoomAndPan="magnify" viewBox="0 0 52.5 52.499999" height="70" preserveAspectRatio="xMidYMid meet" version="1.0"><defs><clipPath id="bf5bc06974"><path d="M 2 3.171875 L 50 3.171875 L 50 48.488281 L 2 48.488281 Z M 2 3.171875 " clip-rule="nonzero"/></clipPath></defs><g clip-path="url(#bf5bc06974)"><path fill="#ffffff" d="M 25.195312 3.171875 C 12.609375 3.171875 2.367188 13.410156 2.367188 26 C 2.367188 38.585938 12.609375 48.828125 25.195312 48.828125 C 37.785156 48.828125 48.023438 38.585938 48.023438 26 C 48.023438 23.429688 47.578125 20.964844 46.789062 18.65625 L 43.09375 22.351562 C 43.332031 23.53125 43.457031 24.75 43.457031 26 C 43.457031 36.066406 35.265625 44.261719 25.195312 44.261719 C 15.128906 44.261719 6.933594 36.066406 6.933594 26 C 6.933594 15.929688 15.128906 7.738281 25.195312 7.738281 C 28.925781 7.738281 32.390625 8.863281 35.285156 10.792969 L 38.554688 7.523438 C 34.792969 4.796875 30.183594 3.171875 25.195312 3.171875 Z M 46.410156 6.121094 L 22.914062 29.621094 L 15.398438 22.101562 L 12.167969 25.332031 L 22.914062 36.074219 L 49.636719 9.351562 Z M 46.410156 6.121094 " fill-opacity="1" fill-rule="nonzero"/></g></svg>