<svg xmlns="http://www.w3.org/2000/svg" xmlns:xlink="http://www.w3.org/1999/xlink" width="70" zoomAndPan="magnify" viewBox="0 0 52.5 52.499999" height="70" preserveAspectRatio="xMidYMid meet" version="1.0"><defs><clipPath id="6a219e3d8e"><path d="M 6.921875 3.167969 L 44.8125 3.167969 L 44.8125 23 L 6.921875 23 Z M 6.921875 3.167969 " clip-rule="nonzero"/></clipPath></defs><g clip-path="url(#6a219e3d8e)"><path fill="#ffffff" d="M 45.128906 4.128906 C 45.128906 3.808594 44.972656 3.570312 44.730469 3.410156 C 44.492188 3.253906 44.175781 3.253906 43.9375 3.410156 L 26.027344 13.839844 L 8.117188 3.410156 C 7.878906 3.253906 7.558594 3.253906 7.320312 3.410156 C 7.082031 3.570312 6.921875 3.808594 6.921875 4.128906 L 6.921875 9.539062 C 6.921875 9.699219 7.003906 9.9375 7.082031 10.019531 L 17.589844 22.671875 C 17.75 22.832031 17.90625 22.996094 18.148438 22.996094 C 18.386719 22.996094 18.542969 22.914062 18.703125 22.753906 L 25.945312 15.832031 L 33.191406 22.753906 C 33.351562 22.914062 33.507812 22.996094 33.746094 22.996094 L 33.828125 22.996094 C 34.066406 22.996094 34.226562 22.914062 34.382812 22.671875 L 44.972656 9.9375 C 45.128906 9.777344 45.128906 9.621094 45.128906 9.460938 L 45.128906 4.128906 " fill-opacity="1" fill-rule="nonzero"/></g><path fill="#ffffff" d="M 41.945312 2.773438 C 30.324219 0.226562 19.816406 0.226562 9.949219 2.695312 L 26.027344 12.011719 L 41.945312 2.773438 " fill-opacity="1" fill-rule="nonzero"/><path fill="#ffffff" d="M 28.972656 22.671875 L 29.847656 21.796875 L 26.027344 18.058594 L 22.207031 21.71875 L 23.078125 22.59375 L 19.257812 44.804688 C 19.257812 45.042969 19.257812 45.285156 19.496094 45.519531 L 25.46875 51.488281 C 25.625 51.648438 25.867188 51.730469 26.027344 51.730469 C 26.261719 51.730469 26.425781 51.648438 26.582031 51.488281 L 32.554688 45.519531 C 32.710938 45.359375 32.792969 45.042969 32.792969 44.804688 L 28.972656 22.671875 " fill-opacity="1" fill-rule="nonzero"/></svg>