<svg xmlns="http://www.w3.org/2000/svg" xmlns:xlink="http://www.w3.org/1999/xlink" width="70" zoomAndPan="magnify" viewBox="0 0 52.5 52.499999" height="70" preserveAspectRatio="xMidYMid meet" version="1.0"><defs><clipPath id="a201c004e8"><path d="M 0 0 L 52.003906 0 L 52.003906 52.003906 L 0 52.003906 Z M 0 0 " clip-rule="nonzero"/></clipPath></defs><g clip-path="url(#a201c004e8)"><path fill="#ffffff" d="M 26.003906 0 C 20.226562 0 14.734375 1.875 10.226562 5.328125 L 10.226562 4.589844 C 10.226562 3.742188 9.542969 3.058594 8.695312 3.058594 C 7.851562 3.058594 7.167969 3.742188 7.167969 4.589844 C 7.167969 4.597656 7.167969 8.710938 7.167969 8.699219 C 7.167969 10.054688 8.816406 10.746094 9.777344 9.78125 C 14.113281 5.445312 19.875 3.058594 26.003906 3.058594 C 38.652344 3.058594 48.945312 13.351562 48.945312 26.003906 C 48.945312 38.652344 38.652344 48.945312 26.003906 48.945312 C 13.351562 48.945312 3.058594 38.652344 3.058594 26.003906 C 3.058594 22.480469 3.835938 19.105469 5.363281 15.964844 C 5.734375 15.207031 5.417969 14.289062 4.660156 13.921875 C 3.902344 13.550781 2.984375 13.867188 2.613281 14.625 C 0.878906 18.1875 0 22.011719 0 26.003906 C 0 40.375 11.628906 52.003906 26.003906 52.003906 C 40.375 52.003906 52.003906 40.375 52.003906 26.003906 C 52.003906 11.632812 40.375 0 26.003906 0 Z M 26.003906 0 " fill-opacity="1" fill-rule="nonzero"/></g><path fill="#ffffff" d="M 26.003906 44.355469 C 36.125 44.355469 44.355469 36.125 44.355469 26.003906 C 44.355469 15.882812 36.125 7.648438 26.003906 7.648438 C 15.882812 7.648438 7.648438 15.882812 7.648438 26.003906 C 7.648438 36.125 15.882812 44.355469 26.003906 44.355469 Z M 17.398438 30.925781 L 24.472656 25.265625 L 24.472656 16.824219 C 24.472656 15.980469 25.15625 15.296875 26.003906 15.296875 C 26.847656 15.296875 27.53125 15.980469 27.53125 16.824219 L 27.53125 26.003906 C 27.53125 26.46875 27.320312 26.90625 26.957031 27.195312 L 19.308594 33.316406 C 18.652344 33.839844 17.691406 33.738281 17.160156 33.074219 C 16.632812 32.417969 16.738281 31.453125 17.398438 30.925781 Z M 17.398438 30.925781 " fill-opacity="1" fill-rule="nonzero"/></svg>