<svg xmlns="http://www.w3.org/2000/svg" xmlns:xlink="http://www.w3.org/1999/xlink" width="70" zoomAndPan="magnify" viewBox="0 0 52.5 52.499999" height="70" preserveAspectRatio="xMidYMid meet" version="1.0"><defs><clipPath id="1a6bf9e785"><path d="M 13 4 L 49.28125 4 L 49.28125 8 L 13 8 Z M 13 4 " clip-rule="nonzero"/></clipPath><clipPath id="b2dd09478d"><path d="M 13 23 L 49.28125 23 L 49.28125 27 L 13 27 Z M 13 23 " clip-rule="nonzero"/></clipPath><clipPath id="6e7425acaf"><path d="M 13 44 L 49.28125 44 L 49.28125 48 L 13 48 Z M 13 44 " clip-rule="nonzero"/></clipPath><clipPath id="dc44c48e5e"><path d="M 2.476562 2.476562 L 9 2.476562 L 9 9 L 2.476562 9 Z M 2.476562 2.476562 " clip-rule="nonzero"/></clipPath><clipPath id="3c429997e5"><path d="M 2.476562 12 L 9 12 L 9 19 L 2.476562 19 Z M 2.476562 12 " clip-rule="nonzero"/></clipPath><clipPath id="4cd8157099"><path d="M 2.476562 21 L 9 21 L 9 29 L 2.476562 29 Z M 2.476562 21 " clip-rule="nonzero"/></clipPath><clipPath id="388296544b"><path d="M 2.476562 31 L 9 31 L 9 39 L 2.476562 39 Z M 2.476562 31 " clip-rule="nonzero"/></clipPath><clipPath id="d1ef9d9d77"><path d="M 2.476562 43 L 9 43 L 9 49.28125 L 2.476562 49.28125 Z M 2.476562 43 " clip-rule="nonzero"/></clipPath></defs><g clip-path="url(#1a6bf9e785)"><path fill="#ffffff" d="M 47.894531 7.34375 L 15.453125 7.34375 C 15.238281 7.34375 15.03125 7.304688 14.832031 7.222656 C 14.632812 7.136719 14.460938 7.019531 14.308594 6.871094 C 14.15625 6.71875 14.039062 6.542969 13.957031 6.34375 C 13.875 6.144531 13.832031 5.9375 13.832031 5.722656 C 13.832031 5.507812 13.875 5.300781 13.957031 5.101562 C 14.039062 4.902344 14.15625 4.726562 14.308594 4.574219 C 14.460938 4.421875 14.632812 4.304688 14.832031 4.222656 C 15.03125 4.140625 15.238281 4.101562 15.453125 4.101562 L 47.894531 4.101562 C 48.109375 4.101562 48.316406 4.140625 48.511719 4.222656 C 48.710938 4.304688 48.886719 4.421875 49.039062 4.574219 C 49.191406 4.726562 49.308594 4.902344 49.390625 5.101562 C 49.472656 5.300781 49.515625 5.507812 49.515625 5.722656 C 49.515625 5.9375 49.472656 6.144531 49.390625 6.34375 C 49.308594 6.542969 49.191406 6.71875 49.039062 6.871094 C 48.886719 7.019531 48.710938 7.136719 48.511719 7.222656 C 48.316406 7.304688 48.109375 7.34375 47.894531 7.34375 Z M 47.894531 7.34375 " fill-opacity="1" fill-rule="nonzero"/></g><path fill="#ffffff" d="M 42.898438 17.074219 L 15.453125 17.074219 C 15.238281 17.074219 15.03125 17.035156 14.832031 16.953125 C 14.632812 16.871094 14.460938 16.753906 14.308594 16.601562 C 14.15625 16.449219 14.039062 16.273438 13.957031 16.074219 C 13.875 15.875 13.832031 15.667969 13.832031 15.453125 C 13.832031 15.238281 13.875 15.03125 13.957031 14.832031 C 14.039062 14.632812 14.15625 14.460938 14.308594 14.308594 C 14.460938 14.15625 14.632812 14.039062 14.832031 13.957031 C 15.03125 13.875 15.238281 13.832031 15.453125 13.832031 L 42.898438 13.832031 C 43.113281 13.832031 43.320312 13.875 43.519531 13.957031 C 43.714844 14.039062 43.890625 14.15625 44.042969 14.308594 C 44.195312 14.460938 44.3125 14.632812 44.394531 14.832031 C 44.476562 15.03125 44.519531 15.238281 44.519531 15.453125 C 44.519531 15.667969 44.476562 15.875 44.394531 16.074219 C 44.3125 16.273438 44.195312 16.449219 44.042969 16.601562 C 43.890625 16.753906 43.714844 16.871094 43.519531 16.953125 C 43.320312 17.035156 43.113281 17.074219 42.898438 17.074219 Z M 42.898438 17.074219 " fill-opacity="1" fill-rule="nonzero"/><path fill="#ffffff" d="M 42.898438 36.539062 L 15.453125 36.539062 C 15.238281 36.539062 15.03125 36.5 14.832031 36.414062 C 14.632812 36.332031 14.460938 36.214844 14.308594 36.0625 C 14.15625 35.910156 14.039062 35.738281 13.957031 35.539062 C 13.875 35.339844 13.832031 35.132812 13.832031 34.917969 C 13.832031 34.703125 13.875 34.496094 13.957031 34.296875 C 14.039062 34.097656 14.15625 33.921875 14.308594 33.769531 C 14.460938 33.617188 14.632812 33.5 14.832031 33.417969 C 15.03125 33.335938 15.238281 33.296875 15.453125 33.296875 L 42.898438 33.296875 C 43.113281 33.296875 43.320312 33.335938 43.519531 33.417969 C 43.714844 33.5 43.890625 33.617188 44.042969 33.769531 C 44.195312 33.921875 44.3125 34.097656 44.394531 34.296875 C 44.476562 34.496094 44.519531 34.703125 44.519531 34.917969 C 44.519531 35.132812 44.476562 35.339844 44.394531 35.539062 C 44.3125 35.738281 44.195312 35.910156 44.042969 36.0625 C 43.890625 36.214844 43.714844 36.332031 43.519531 36.414062 C 43.320312 36.5 43.113281 36.539062 42.898438 36.539062 Z M 42.898438 36.539062 " fill-opacity="1" fill-rule="nonzero"/><g clip-path="url(#b2dd09478d)"><path fill="#ffffff" d="M 47.894531 26.808594 L 15.453125 26.808594 C 15.238281 26.808594 15.03125 26.765625 14.832031 26.683594 C 14.632812 26.601562 14.460938 26.484375 14.308594 26.332031 C 14.15625 26.179688 14.039062 26.003906 13.957031 25.804688 C 13.875 25.609375 13.832031 25.402344 13.832031 25.1875 C 13.832031 24.96875 13.875 24.761719 13.957031 24.566406 C 14.039062 24.367188 14.15625 24.191406 14.308594 24.039062 C 14.460938 23.886719 14.632812 23.769531 14.832031 23.6875 C 15.03125 23.605469 15.238281 23.5625 15.453125 23.5625 L 47.894531 23.5625 C 48.109375 23.5625 48.316406 23.605469 48.511719 23.6875 C 48.710938 23.769531 48.886719 23.886719 49.039062 24.039062 C 49.191406 24.191406 49.308594 24.367188 49.390625 24.566406 C 49.472656 24.761719 49.515625 24.96875 49.515625 25.1875 C 49.515625 25.402344 49.472656 25.609375 49.390625 25.804688 C 49.308594 26.003906 49.191406 26.179688 49.039062 26.332031 C 48.886719 26.484375 48.710938 26.601562 48.511719 26.683594 C 48.316406 26.765625 48.109375 26.808594 47.894531 26.808594 Z M 47.894531 26.808594 " fill-opacity="1" fill-rule="nonzero"/></g><g clip-path="url(#6e7425acaf)"><path fill="#ffffff" d="M 47.894531 47.894531 L 15.453125 47.894531 C 15.238281 47.894531 15.03125 47.851562 14.832031 47.769531 C 14.632812 47.6875 14.460938 47.570312 14.308594 47.417969 C 14.15625 47.265625 14.039062 47.089844 13.957031 46.890625 C 13.875 46.691406 13.832031 46.484375 13.832031 46.269531 C 13.832031 46.054688 13.875 45.847656 13.957031 45.648438 C 14.039062 45.453125 14.15625 45.277344 14.308594 45.125 C 14.460938 44.972656 14.632812 44.855469 14.832031 44.773438 C 15.03125 44.691406 15.238281 44.648438 15.453125 44.648438 L 47.894531 44.648438 C 48.109375 44.648438 48.316406 44.691406 48.511719 44.773438 C 48.710938 44.855469 48.886719 44.972656 49.039062 45.125 C 49.191406 45.277344 49.308594 45.453125 49.390625 45.648438 C 49.472656 45.847656 49.515625 46.054688 49.515625 46.269531 C 49.515625 46.484375 49.472656 46.691406 49.390625 46.890625 C 49.308594 47.089844 49.191406 47.265625 49.039062 47.417969 C 48.886719 47.570312 48.710938 47.6875 48.511719 47.769531 C 48.316406 47.851562 48.109375 47.894531 47.894531 47.894531 Z M 47.894531 47.894531 " fill-opacity="1" fill-rule="nonzero"/></g><g clip-path="url(#dc44c48e5e)"><path fill="#ffffff" d="M 5.722656 8.964844 C 5.292969 8.964844 4.878906 8.882812 4.480469 8.71875 C 4.082031 8.554688 3.734375 8.320312 3.429688 8.015625 C 3.125 7.710938 2.890625 7.359375 2.726562 6.964844 C 2.5625 6.566406 2.476562 6.152344 2.476562 5.722656 C 2.476562 5.292969 2.5625 4.878906 2.726562 4.480469 C 2.890625 4.082031 3.125 3.734375 3.429688 3.429688 C 3.734375 3.125 4.082031 2.890625 4.480469 2.726562 C 4.878906 2.5625 5.292969 2.476562 5.722656 2.476562 C 6.152344 2.476562 6.566406 2.5625 6.964844 2.726562 C 7.359375 2.890625 7.710938 3.125 8.015625 3.429688 C 8.320312 3.734375 8.554688 4.082031 8.71875 4.480469 C 8.882812 4.878906 8.964844 5.292969 8.964844 5.722656 C 8.964844 6.152344 8.882812 6.566406 8.71875 6.964844 C 8.554688 7.359375 8.320312 7.710938 8.015625 8.015625 C 7.710938 8.320312 7.359375 8.554688 6.964844 8.71875 C 6.566406 8.882812 6.152344 8.964844 5.722656 8.964844 Z M 5.722656 8.964844 " fill-opacity="1" fill-rule="nonzero"/></g><g clip-path="url(#3c429997e5)"><path fill="#ffffff" d="M 5.722656 18.699219 C 5.292969 18.699219 4.878906 18.617188 4.480469 18.449219 C 4.082031 18.285156 3.734375 18.050781 3.429688 17.746094 C 3.125 17.445312 2.890625 17.09375 2.726562 16.695312 C 2.5625 16.296875 2.476562 15.882812 2.476562 15.453125 C 2.476562 15.023438 2.5625 14.609375 2.726562 14.210938 C 2.890625 13.816406 3.125 13.464844 3.429688 13.160156 C 3.734375 12.855469 4.082031 12.621094 4.480469 12.457031 C 4.878906 12.292969 5.292969 12.210938 5.722656 12.210938 C 6.152344 12.210938 6.566406 12.292969 6.964844 12.457031 C 7.359375 12.621094 7.710938 12.855469 8.015625 13.160156 C 8.320312 13.464844 8.554688 13.816406 8.71875 14.210938 C 8.882812 14.609375 8.964844 15.023438 8.964844 15.453125 C 8.964844 15.882812 8.882812 16.296875 8.71875 16.695312 C 8.554688 17.09375 8.320312 17.445312 8.015625 17.746094 C 7.710938 18.050781 7.359375 18.285156 6.964844 18.449219 C 6.566406 18.617188 6.152344 18.699219 5.722656 18.699219 Z M 5.722656 18.699219 " fill-opacity="1" fill-rule="nonzero"/></g><g clip-path="url(#4cd8157099)"><path fill="#ffffff" d="M 5.722656 28.429688 C 5.292969 28.429688 4.878906 28.347656 4.480469 28.183594 C 4.082031 28.019531 3.734375 27.785156 3.429688 27.480469 C 3.125 27.175781 2.890625 26.824219 2.726562 26.425781 C 2.5625 26.03125 2.476562 25.617188 2.476562 25.1875 C 2.476562 24.753906 2.5625 24.339844 2.726562 23.945312 C 2.890625 23.546875 3.125 23.195312 3.429688 22.890625 C 3.734375 22.585938 4.082031 22.351562 4.480469 22.1875 C 4.878906 22.023438 5.292969 21.941406 5.722656 21.941406 C 6.152344 21.941406 6.566406 22.023438 6.964844 22.1875 C 7.359375 22.351562 7.710938 22.585938 8.015625 22.890625 C 8.320312 23.195312 8.554688 23.546875 8.71875 23.945312 C 8.882812 24.339844 8.964844 24.753906 8.964844 25.1875 C 8.964844 25.617188 8.882812 26.03125 8.71875 26.425781 C 8.554688 26.824219 8.320312 27.175781 8.015625 27.480469 C 7.710938 27.785156 7.359375 28.019531 6.964844 28.183594 C 6.566406 28.347656 6.152344 28.429688 5.722656 28.429688 Z M 5.722656 28.429688 " fill-opacity="1" fill-rule="nonzero"/></g><g clip-path="url(#388296544b)"><path fill="#ffffff" d="M 5.722656 38.160156 C 5.292969 38.160156 4.878906 38.078125 4.480469 37.914062 C 4.082031 37.75 3.734375 37.515625 3.429688 37.210938 C 3.125 36.90625 2.890625 36.554688 2.726562 36.160156 C 2.5625 35.761719 2.476562 35.347656 2.476562 34.917969 C 2.476562 34.488281 2.5625 34.074219 2.726562 33.675781 C 2.890625 33.277344 3.125 32.925781 3.429688 32.625 C 3.734375 32.320312 4.082031 32.085938 4.480469 31.921875 C 4.878906 31.753906 5.292969 31.671875 5.722656 31.671875 C 6.152344 31.671875 6.566406 31.753906 6.964844 31.921875 C 7.359375 32.085938 7.710938 32.320312 8.015625 32.625 C 8.320312 32.925781 8.554688 33.277344 8.71875 33.675781 C 8.882812 34.074219 8.964844 34.488281 8.964844 34.917969 C 8.964844 35.347656 8.882812 35.761719 8.71875 36.160156 C 8.554688 36.554688 8.320312 36.90625 8.015625 37.210938 C 7.710938 37.515625 7.359375 37.75 6.964844 37.914062 C 6.566406 38.078125 6.152344 38.160156 5.722656 38.160156 Z M 5.722656 38.160156 " fill-opacity="1" fill-rule="nonzero"/></g><g clip-path="url(#d1ef9d9d77)"><path fill="#ffffff" d="M 5.722656 49.515625 C 5.292969 49.515625 4.878906 49.433594 4.480469 49.269531 C 4.082031 49.101562 3.734375 48.867188 3.429688 48.566406 C 3.125 48.261719 2.890625 47.910156 2.726562 47.511719 C 2.5625 47.113281 2.476562 46.699219 2.476562 46.269531 C 2.476562 45.839844 2.5625 45.425781 2.726562 45.03125 C 2.890625 44.632812 3.125 44.28125 3.429688 43.976562 C 3.734375 43.671875 4.082031 43.4375 4.480469 43.273438 C 4.878906 43.109375 5.292969 43.027344 5.722656 43.027344 C 6.152344 43.027344 6.566406 43.109375 6.964844 43.273438 C 7.359375 43.4375 7.710938 43.671875 8.015625 43.976562 C 8.320312 44.28125 8.554688 44.632812 8.71875 45.03125 C 8.882812 45.425781 8.964844 45.839844 8.964844 46.269531 C 8.964844 46.699219 8.882812 47.113281 8.71875 47.511719 C 8.554688 47.910156 8.320312 48.261719 8.015625 48.566406 C 7.710938 48.867188 7.359375 49.101562 6.964844 49.269531 C 6.566406 49.433594 6.152344 49.515625 5.722656 49.515625 Z M 5.722656 49.515625 " fill-opacity="1" fill-rule="nonzero"/></g></svg>