<svg xmlns="http://www.w3.org/2000/svg" xmlns:xlink="http://www.w3.org/1999/xlink" width="70" zoomAndPan="magnify" viewBox="0 0 52.5 52.499999" height="70" preserveAspectRatio="xMidYMid meet" version="1.0"><defs><clipPath id="208ab9c600"><path d="M 7.429688 0 L 41.605469 0 L 41.605469 52 L 7.429688 52 Z M 7.429688 0 " clip-rule="nonzero"/></clipPath></defs><g clip-path="url(#208ab9c600)"><path fill="#ffffff" d="M 24.515625 48.605469 L 38.703125 22.042969 C 38.972656 21.269531 39.171875 20.46875 39.3125 19.660156 C 39.453125 18.835938 39.523438 17.992188 39.523438 17.121094 C 39.523438 12.972656 37.847656 9.214844 35.132812 6.5 C 32.410156 3.789062 28.660156 2.105469 24.515625 2.105469 C 20.371094 2.105469 16.625 3.789062 13.898438 6.5 C 11.1875 9.214844 9.507812 12.972656 9.507812 17.121094 C 9.507812 17.992188 9.578125 18.835938 9.71875 19.660156 C 9.859375 20.46875 10.058594 21.269531 10.328125 22.042969 Z M 24.515625 7.78125 C 27.148438 7.78125 29.519531 8.851562 31.234375 10.578125 C 32.960938 12.292969 34.027344 14.664062 34.027344 17.296875 C 34.027344 17.835938 33.980469 18.367188 33.886719 18.894531 C 33.792969 19.421875 33.664062 19.941406 33.488281 20.445312 C 32.832031 22.324219 31.597656 23.933594 30 25.0625 C 28.449219 26.15625 26.558594 26.800781 24.515625 26.800781 C 22.472656 26.800781 20.582031 26.15625 19.03125 25.0625 C 17.433594 23.933594 16.214844 22.324219 15.554688 20.445312 L 15.542969 20.457031 C 15.367188 19.953125 15.238281 19.433594 15.144531 18.894531 C 15.050781 18.367188 15.003906 17.835938 15.003906 17.296875 C 15.003906 14.664062 16.074219 12.292969 17.800781 10.578125 C 19.511719 8.851562 21.886719 7.78125 24.515625 7.78125 Z M 29.777344 12.035156 C 28.425781 10.695312 26.570312 9.859375 24.515625 9.859375 C 22.460938 9.859375 20.605469 10.695312 19.253906 12.035156 C 17.917969 13.386719 17.082031 15.242188 17.082031 17.296875 C 17.082031 17.730469 17.117188 18.15625 17.1875 18.554688 C 17.257812 18.964844 17.363281 19.375 17.492188 19.765625 C 18.011719 21.234375 18.972656 22.488281 20.21875 23.371094 C 21.429688 24.226562 22.90625 24.734375 24.515625 24.734375 C 26.125 24.734375 27.605469 24.226562 28.816406 23.371094 C 30.058594 22.488281 31.023438 21.234375 31.539062 19.765625 C 31.667969 19.375 31.773438 18.976562 31.84375 18.554688 C 31.914062 18.15625 31.949219 17.730469 31.949219 17.296875 C 31.949219 15.242188 31.117188 13.386719 29.777344 12.035156 Z M 40.570312 22.925781 L 25.433594 51.273438 C 25.339844 51.460938 25.199219 51.613281 24.996094 51.707031 C 24.503906 51.976562 23.871094 51.789062 23.601562 51.285156 L 8.496094 22.996094 C 8.460938 22.925781 8.425781 22.867188 8.402344 22.785156 C 8.085938 21.890625 7.839844 20.949219 7.675781 20 C 7.523438 19.046875 7.429688 18.097656 7.429688 17.121094 C 7.429688 12.398438 9.34375 8.132812 12.445312 5.03125 C 15.53125 1.941406 19.796875 0.0273438 24.515625 0.0273438 C 29.238281 0.0273438 33.5 1.941406 36.589844 5.03125 C 39.691406 8.132812 41.605469 12.398438 41.605469 17.121094 C 41.605469 18.097656 41.511719 19.046875 41.355469 20 C 41.191406 20.949219 40.945312 21.890625 40.628906 22.785156 C 40.617188 22.832031 40.59375 22.878906 40.570312 22.925781 Z M 40.570312 22.925781 " fill-opacity="1" fill-rule="nonzero"/></g></svg>