<svg xmlns="http://www.w3.org/2000/svg" xmlns:xlink="http://www.w3.org/1999/xlink" width="70" zoomAndPan="magnify" viewBox="0 0 52.5 52.499999" height="70" preserveAspectRatio="xMidYMid meet" version="1.0"><defs><clipPath id="d13f5724bb"><path d="M 2.730469 0 L 49.535156 0 L 49.535156 52 L 2.730469 52 Z M 2.730469 0 " clip-rule="nonzero"/></clipPath></defs><g clip-path="url(#d13f5724bb)"><path fill="#ffffff" d="M 47.476562 24.980469 L 30.128906 24.980469 L 30.128906 17.164062 L 47.476562 17.164062 Z M 44.285156 50.203125 L 30.128906 50.203125 L 30.128906 26.769531 L 44.285156 26.769531 Z M 23.65625 50.203125 L 23.65625 26.769531 L 28.339844 26.769531 L 28.339844 50.203125 Z M 7.710938 26.769531 L 21.867188 26.769531 L 21.867188 50.203125 L 7.710938 50.203125 Z M 4.519531 17.164062 L 21.867188 17.164062 L 21.867188 24.980469 L 4.519531 24.980469 Z M 10.039062 6.796875 C 9.851562 5.628906 11.199219 4.269531 12.179688 3.277344 C 13.101562 2.347656 13.910156 1.898438 14.726562 1.867188 C 15.742188 1.824219 16.914062 2.449219 18.203125 3.726562 C 19.601562 5.113281 21.722656 7.714844 23.304688 10.40625 C 24.066406 11.699219 24.597656 12.855469 24.847656 13.746094 C 24.949219 14.117188 24.996094 14.417969 25.003906 14.648438 L 12.441406 9.121094 C 11.425781 8.597656 10.191406 7.773438 10.039062 6.796875 Z M 27.054688 13.746094 C 27.300781 12.855469 27.835938 11.699219 28.597656 10.40625 C 30.179688 7.714844 32.300781 5.113281 33.699219 3.726562 C 34.988281 2.449219 36.15625 1.824219 37.171875 1.867188 C 37.988281 1.898438 38.796875 2.347656 39.71875 3.277344 C 40.703125 4.269531 42.050781 5.628906 41.863281 6.796875 C 41.707031 7.773438 40.476562 8.597656 39.457031 9.121094 L 26.898438 14.648438 C 26.90625 14.417969 26.949219 14.117188 27.054688 13.746094 Z M 28.339844 24.980469 L 23.65625 24.980469 L 23.65625 17.164062 L 28.339844 17.164062 Z M 48.371094 15.371094 L 29.695312 15.371094 L 40.203125 10.75 C 40.21875 10.742188 40.234375 10.734375 40.253906 10.726562 C 42.300781 9.675781 43.40625 8.484375 43.628906 7.078125 C 43.960938 5.015625 42.242188 3.28125 40.992188 2.019531 C 39.75 0.765625 38.527344 0.128906 37.25 0.078125 C 35.695312 0.0117188 34.121094 0.789062 32.4375 2.453125 C 30.660156 4.21875 28.496094 7.046875 27.054688 9.496094 C 26.613281 10.25 26.242188 10.953125 25.949219 11.601562 C 25.65625 10.953125 25.289062 10.25 24.847656 9.496094 C 23.40625 7.046875 21.242188 4.21875 19.460938 2.453125 C 17.78125 0.789062 16.207031 0.0117188 14.652344 0.078125 C 13.375 0.128906 12.148438 0.765625 10.910156 2.019531 C 9.65625 3.28125 7.941406 5.015625 8.269531 7.078125 C 8.492188 8.484375 9.597656 9.675781 11.648438 10.726562 C 11.664062 10.734375 11.679688 10.742188 11.695312 10.75 L 22.207031 15.371094 L 3.625 15.371094 C 3.128906 15.371094 2.730469 15.773438 2.730469 16.269531 L 2.730469 25.875 C 2.730469 26.371094 3.128906 26.769531 3.625 26.769531 L 5.917969 26.769531 L 5.917969 51.097656 C 5.917969 51.589844 6.320312 51.992188 6.8125 51.992188 L 45.179688 51.992188 C 45.675781 51.992188 46.074219 51.589844 46.074219 51.097656 L 46.074219 26.769531 L 48.371094 26.769531 C 48.863281 26.769531 49.265625 26.371094 49.265625 25.875 L 49.265625 16.269531 C 49.265625 15.773438 48.863281 15.371094 48.371094 15.371094 " fill-opacity="1" fill-rule="nonzero"/></g></svg>