<svg xmlns="http://www.w3.org/2000/svg" xmlns:xlink="http://www.w3.org/1999/xlink" width="1080" zoomAndPan="magnify" viewBox="0 0 810 1012.49997" height="1350" preserveAspectRatio="xMidYMid meet" version="1.2"><defs><clipPath id="d08ceffc3e"><path d="M 11.136719 138.792969 L 796 138.792969 L 796 764.785156 L 11.136719 764.785156 Z M 11.136719 138.792969 "/></clipPath><clipPath id="057b4985f7"><path d="M 11.136719 138.792969 L 796 138.792969 L 796 240 L 11.136719 240 Z M 11.136719 138.792969 "/></clipPath><clipPath id="cbddb2de1d"><path d="M 210.363281 343.519531 L 597 343.519531 L 597 527.414062 L 210.363281 527.414062 Z M 210.363281 343.519531 "/></clipPath><clipPath id="6558c74844"><path d="M 469 363.003906 L 616.769531 363.003906 L 616.769531 632.828125 L 469 632.828125 Z M 469 363.003906 "/></clipPath><clipPath id="2795d471ad"><path d="M 210.363281 508.070312 L 597 508.070312 L 597 652.742188 L 210.363281 652.742188 Z M 210.363281 508.070312 "/></clipPath></defs><g id="f24c9969f9"><g clip-rule="nonzero" clip-path="url(#d08ceffc3e)"><path style=" stroke:none;fill-rule:nonzero;fill:#f4ebd7;fill-opacity:1;" d="M 789.566406 719.277344 L 783.378906 719.277344 C 783.378906 728.542969 779.648438 736.859375 773.582031 742.941406 C 767.507812 749.003906 759.183594 752.742188 749.925781 752.742188 L 57.398438 752.742188 C 48.140625 752.742188 39.816406 749.003906 33.742188 742.941406 C 27.679688 736.859375 23.945312 728.542969 23.945312 719.277344 L 23.945312 184.683594 C 23.945312 175.421875 27.679688 167.09375 33.742188 161.019531 C 39.816406 154.957031 48.140625 151.226562 57.398438 151.214844 L 749.925781 151.214844 C 759.183594 151.226562 767.507812 154.957031 773.582031 161.019531 C 779.648438 167.09375 783.378906 175.421875 783.378906 184.683594 L 783.378906 719.277344 L 795.757812 719.277344 L 795.757812 184.683594 C 795.757812 159.355469 775.234375 138.847656 749.925781 138.835938 L 57.398438 138.835938 C 32.089844 138.847656 11.570312 159.355469 11.570312 184.683594 L 11.570312 719.277344 C 11.570312 744.597656 32.089844 765.117188 57.398438 765.117188 L 749.925781 765.117188 C 775.234375 765.117188 795.757812 744.597656 795.757812 719.277344 L 789.566406 719.277344 "/></g><g clip-rule="nonzero" clip-path="url(#057b4985f7)"><path style=" stroke:none;fill-rule:nonzero;fill:#f4ebd7;fill-opacity:1;" d="M 789.566406 233.746094 L 795.757812 233.746094 L 795.757812 184.683594 C 795.757812 159.355469 775.234375 138.847656 749.925781 138.835938 L 57.398438 138.835938 C 32.089844 138.847656 11.570312 159.355469 11.570312 184.683594 L 11.570312 233.746094 C 11.570312 235.371094 12.226562 236.964844 13.375 238.125 C 14.539062 239.277344 16.121094 239.9375 17.757812 239.9375 L 789.566406 239.9375 C 791.203125 239.9375 792.789062 239.277344 793.9375 238.125 C 795.101562 236.964844 795.757812 235.371094 795.757812 233.746094 L 789.566406 233.746094 L 789.566406 227.554688 L 23.945312 227.554688 L 23.945312 184.683594 C 23.945312 175.421875 27.679688 167.09375 33.742188 161.019531 C 39.816406 154.957031 48.140625 151.226562 57.398438 151.214844 L 749.925781 151.214844 C 759.183594 151.226562 767.507812 154.957031 773.582031 161.019531 C 779.648438 167.09375 783.378906 175.421875 783.378906 184.683594 L 783.378906 233.746094 L 789.566406 233.746094 L 789.566406 227.554688 L 789.566406 233.746094 "/></g><path style=" stroke:none;fill-rule:nonzero;fill:#f4ebd7;fill-opacity:1;" d="M 624.28125 192.042969 L 618.09375 192.042969 C 618.082031 195.710938 616.625 198.96875 614.226562 201.375 C 611.824219 203.765625 608.566406 205.238281 604.902344 205.238281 C 601.242188 205.238281 597.988281 203.765625 595.578125 201.375 C 593.179688 198.96875 591.71875 195.710938 591.707031 192.042969 C 591.71875 188.386719 593.179688 185.132812 595.578125 182.722656 C 597.988281 180.320312 601.242188 178.863281 604.902344 178.851562 C 608.566406 178.863281 611.824219 180.320312 614.226562 182.722656 C 616.625 185.121094 618.082031 188.378906 618.09375 192.042969 L 630.472656 192.042969 C 630.472656 185.003906 627.597656 178.574219 622.976562 173.972656 C 618.371094 169.347656 611.941406 166.476562 604.902344 166.476562 C 597.859375 166.476562 591.429688 169.347656 586.824219 173.972656 C 582.210938 178.574219 579.328125 185.003906 579.328125 192.042969 C 579.328125 199.085938 582.210938 205.515625 586.824219 210.128906 C 591.429688 214.742188 597.859375 217.617188 604.902344 217.617188 C 611.941406 217.617188 618.371094 214.742188 622.984375 210.121094 C 627.597656 205.515625 630.472656 199.085938 630.472656 192.042969 L 624.28125 192.042969 "/><path style=" stroke:none;fill-rule:nonzero;fill:#f4ebd7;fill-opacity:1;" d="M 678.546875 192.042969 L 672.355469 192.042969 C 672.347656 195.710938 670.886719 198.96875 668.488281 201.375 C 666.078125 203.765625 662.820312 205.238281 659.164062 205.238281 C 655.5 205.238281 652.242188 203.765625 649.835938 201.375 C 647.441406 198.96875 645.972656 195.710938 645.972656 192.042969 C 645.972656 188.378906 647.441406 185.132812 649.835938 182.722656 C 652.242188 180.320312 655.5 178.863281 659.164062 178.851562 C 662.820312 178.863281 666.078125 180.320312 668.488281 182.722656 C 670.886719 185.132812 672.347656 188.386719 672.355469 192.042969 L 684.734375 192.042969 C 684.734375 185.003906 681.855469 178.574219 677.238281 173.972656 C 672.625 169.347656 666.195312 166.476562 659.164062 166.476562 C 645.035156 166.484375 633.59375 177.925781 633.59375 192.042969 C 633.59375 199.085938 636.46875 205.515625 641.082031 210.128906 C 645.695312 214.742188 652.117188 217.617188 659.164062 217.617188 C 666.195312 217.617188 672.625 214.742188 677.238281 210.128906 C 681.863281 205.515625 684.734375 199.085938 684.734375 192.042969 L 678.546875 192.042969 "/><path style=" stroke:none;fill-rule:nonzero;fill:#f4ebd7;fill-opacity:1;" d="M 732.789062 192.042969 L 726.597656 192.042969 C 726.597656 195.710938 725.140625 198.96875 722.742188 201.375 C 720.335938 203.765625 717.074219 205.238281 713.417969 205.238281 C 709.753906 205.238281 706.492188 203.765625 704.085938 201.375 C 701.699219 198.96875 700.226562 195.710938 700.226562 192.042969 C 700.226562 188.378906 701.699219 185.132812 704.085938 182.722656 C 706.492188 180.320312 709.753906 178.863281 713.417969 178.851562 C 717.074219 178.863281 720.335938 180.320312 722.742188 182.722656 C 725.140625 185.132812 726.597656 188.386719 726.597656 192.042969 L 738.980469 192.042969 C 738.988281 185.003906 736.109375 178.574219 731.496094 173.972656 C 726.890625 169.347656 720.460938 166.476562 713.417969 166.476562 C 699.300781 166.484375 687.851562 177.925781 687.851562 192.042969 C 687.851562 206.167969 699.289062 217.617188 713.417969 217.617188 C 720.460938 217.617188 726.890625 214.742188 731.496094 210.128906 C 736.113281 205.515625 738.988281 199.085938 738.980469 192.042969 L 732.789062 192.042969 "/><path style=" stroke:none;fill-rule:nonzero;fill:#f4ebd7;fill-opacity:1;" d="M 337.992188 497.921875 L 199.972656 363.644531 C 193.753906 371.96875 190.0625 382.296875 190.0625 393.46875 L 190.0625 602.375 C 190.0625 613.542969 193.753906 623.871094 199.972656 632.199219 L 337.992188 497.921875 "/><g clip-rule="nonzero" clip-path="url(#cbddb2de1d)"><path style=" stroke:none;fill-rule:nonzero;fill:#f4ebd7;fill-opacity:1;" d="M 378.980469 517.285156 C 392.75 530.6875 414.332031 530.6875 428.105469 517.285156 L 596.671875 353.28125 C 588.386719 347.167969 578.160156 343.546875 567.097656 343.546875 L 239.988281 343.546875 C 228.921875 343.546875 218.695312 347.167969 210.410156 353.28125 L 378.980469 517.285156 "/></g><g clip-rule="nonzero" clip-path="url(#6558c74844)"><path style=" stroke:none;fill-rule:nonzero;fill:#f4ebd7;fill-opacity:1;" d="M 607.105469 363.644531 L 469.09375 497.921875 L 607.105469 632.199219 C 613.328125 623.871094 617.019531 613.542969 617.019531 602.375 L 617.019531 393.46875 C 617.019531 382.296875 613.328125 371.96875 607.105469 363.644531 "/></g><g clip-rule="nonzero" clip-path="url(#2795d471ad)"><path style=" stroke:none;fill-rule:nonzero;fill:#f4ebd7;fill-opacity:1;" d="M 458.550781 508.179688 L 438.355469 527.824219 C 428.984375 536.941406 416.621094 541.960938 403.539062 541.960938 C 390.460938 541.960938 378.101562 536.941406 368.730469 527.824219 L 348.535156 508.179688 L 210.410156 642.5625 C 218.695312 648.675781 228.921875 652.296875 239.988281 652.296875 L 567.097656 652.296875 C 578.160156 652.296875 588.386719 648.675781 596.671875 642.5625 L 458.550781 508.179688 "/></g></g></svg>