<svg xmlns="http://www.w3.org/2000/svg" xmlns:xlink="http://www.w3.org/1999/xlink" width="1080" zoomAndPan="magnify" viewBox="0 0 810 1012.49997" height="1350" preserveAspectRatio="xMidYMid meet" version="1.0">
  <defs>
    <clipPath id="35da4f59b3">
      <path d="M 81.558594 86 L 728.835938 86 L 728.835938 898 L 81.558594 898 Z M 81.558594 86 " clip-rule="nonzero" />
    </clipPath>
    <clipPath id="e0b7261707">
      <path d="M 624 86 L 728.835938 86 L 728.835938 898 L 624 898 Z M 624 86 " clip-rule="nonzero" />
    </clipPath>
    <clipPath id="f30019ecae">
      <path d="M 327 292 L 517.148438 292 L 517.148438 692 L 327 692 Z M 327 292 " clip-rule="nonzero" />
    </clipPath>
    <clipPath id="83d53df11a">
      <path d="M 218 559 L 497 559 L 497 712.226562 L 218 712.226562 Z M 218 559 " clip-rule="nonzero" />
    </clipPath>
    <clipPath id="96b0d70541">
      <path d="M 197.410156 292 L 347 292 L 347 692 L 197.410156 692 Z M 197.410156 292 " clip-rule="nonzero" />
    </clipPath>
  </defs>
  <g clip-path="url(#35da4f59b3)">
    <path fill="#b3151d" d="M 128.613281 890.898438 L 128.613281 884.5 C 119.03125 884.5 110.433594 880.640625 104.144531 874.371094 C 97.875 868.089844 94.011719 859.480469 94.011719 849.910156 L 94.011719 133.832031 C 94.011719 124.261719 97.875 115.652344 104.144531 109.375 C 110.433594 103.105469 119.03125 99.242188 128.613281 99.242188 L 681.382812 99.242188 C 690.960938 99.242188 699.574219 103.105469 705.851562 109.375 C 712.121094 115.652344 715.980469 124.261719 715.992188 133.832031 L 715.992188 849.910156 C 715.980469 859.480469 712.121094 868.089844 705.851562 874.371094 C 699.574219 880.640625 690.960938 884.5 681.382812 884.5 L 128.613281 884.5 L 128.613281 897.300781 L 681.382812 897.300781 C 707.574219 897.300781 728.78125 876.078125 728.792969 849.910156 L 728.792969 133.832031 C 728.78125 107.664062 707.574219 86.445312 681.382812 86.445312 L 128.613281 86.445312 C 102.433594 86.445312 81.214844 107.664062 81.214844 133.832031 L 81.214844 849.910156 C 81.214844 876.078125 102.433594 897.300781 128.613281 897.300781 L 128.613281 890.898438 " fill-opacity="1" fill-rule="nonzero" />
  </g>
  <g clip-path="url(#e0b7261707)">
    <path fill="#b3151d" d="M 630.652344 890.898438 L 630.652344 897.300781 L 681.382812 897.300781 C 707.574219 897.300781 728.78125 876.078125 728.792969 849.910156 L 728.792969 133.832031 C 728.78125 107.664062 707.574219 86.445312 681.382812 86.445312 L 630.652344 86.445312 C 628.972656 86.445312 627.324219 87.125 626.125 88.3125 C 624.933594 89.515625 624.253906 91.152344 624.253906 92.84375 L 624.253906 890.898438 C 624.253906 892.589844 624.933594 894.230469 626.125 895.417969 C 627.324219 896.621094 628.972656 897.300781 630.652344 897.300781 L 630.652344 890.898438 L 637.054688 890.898438 L 637.054688 99.242188 L 681.382812 99.242188 C 690.960938 99.242188 699.574219 103.105469 705.851562 109.375 C 712.121094 115.652344 715.980469 124.261719 715.992188 133.832031 L 715.992188 849.910156 C 715.980469 859.480469 712.121094 868.089844 705.851562 874.371094 C 699.574219 880.640625 690.960938 884.5 681.382812 884.5 L 630.652344 884.5 L 630.652344 890.898438 L 637.054688 890.898438 L 630.652344 890.898438 " fill-opacity="1" fill-rule="nonzero" />
  </g>
  <path fill="#b3151d" d="M 673.773438 719.992188 L 673.773438 713.59375 C 669.984375 713.582031 666.613281 712.074219 664.125 709.59375 C 661.652344 707.113281 660.132812 703.742188 660.132812 699.953125 C 660.132812 696.171875 661.652344 692.804688 664.125 690.3125 C 666.613281 687.832031 669.984375 686.324219 673.773438 686.3125 C 677.554688 686.324219 680.921875 687.832031 683.414062 690.3125 C 685.894531 692.804688 687.402344 696.171875 687.414062 699.953125 C 687.402344 703.742188 685.894531 707.113281 683.414062 709.59375 C 680.933594 712.074219 677.5625 713.582031 673.773438 713.59375 L 673.773438 726.394531 C 681.054688 726.394531 687.703125 723.421875 692.460938 718.644531 C 697.242188 713.882812 700.210938 707.234375 700.210938 699.953125 C 700.210938 692.671875 697.242188 686.023438 692.460938 681.261719 C 687.703125 676.492188 681.054688 673.511719 673.773438 673.511719 C 666.492188 673.511719 659.84375 676.492188 655.074219 681.261719 C 650.304688 686.023438 647.332031 692.671875 647.332031 699.953125 C 647.332031 707.234375 650.304688 713.882812 655.082031 718.652344 C 659.84375 723.421875 666.492188 726.394531 673.773438 726.394531 L 673.773438 719.992188 " fill-opacity="1" fill-rule="nonzero" />
  <path fill="#b3151d" d="M 673.773438 776.101562 L 673.773438 769.703125 C 669.984375 769.691406 666.613281 768.183594 664.125 765.703125 C 661.652344 763.210938 660.132812 759.84375 660.132812 756.0625 C 660.132812 752.273438 661.652344 748.902344 664.125 746.414062 C 666.613281 743.941406 669.984375 742.421875 673.773438 742.421875 C 677.5625 742.421875 680.921875 743.941406 683.414062 746.414062 C 685.894531 748.902344 687.402344 752.273438 687.414062 756.0625 C 687.402344 759.84375 685.894531 763.210938 683.414062 765.703125 C 680.921875 768.183594 677.554688 769.691406 673.773438 769.703125 L 673.773438 782.5 C 681.054688 782.5 687.703125 779.523438 692.460938 774.75 C 697.242188 769.980469 700.210938 763.332031 700.210938 756.0625 C 700.203125 741.453125 688.371094 729.621094 673.773438 729.621094 C 666.492188 729.621094 659.84375 732.59375 655.074219 737.363281 C 650.304688 742.132812 647.332031 748.773438 647.332031 756.0625 C 647.332031 763.332031 650.304688 769.980469 655.074219 774.75 C 659.84375 779.53125 666.492188 782.5 673.773438 782.5 L 673.773438 776.101562 " fill-opacity="1" fill-rule="nonzero" />
  <path fill="#b3151d" d="M 673.773438 832.191406 L 673.773438 825.789062 C 669.984375 825.789062 666.613281 824.28125 664.125 821.800781 C 661.652344 819.3125 660.132812 815.941406 660.132812 812.160156 C 660.132812 808.371094 661.652344 805 664.125 802.511719 C 666.613281 800.042969 669.984375 798.519531 673.773438 798.519531 C 677.5625 798.519531 680.921875 800.042969 683.414062 802.511719 C 685.894531 805 687.402344 808.371094 687.414062 812.160156 C 687.402344 815.941406 685.894531 819.3125 683.414062 821.800781 C 680.921875 824.28125 677.554688 825.789062 673.773438 825.789062 L 673.773438 838.589844 C 681.054688 838.601562 687.703125 835.621094 692.460938 830.851562 C 697.242188 826.089844 700.210938 819.441406 700.210938 812.160156 C 700.203125 797.5625 688.371094 785.722656 673.773438 785.722656 C 659.171875 785.722656 647.332031 797.550781 647.332031 812.160156 C 647.332031 819.441406 650.304688 826.089844 655.074219 830.851562 C 659.84375 835.628906 666.492188 838.601562 673.773438 838.589844 L 673.773438 832.191406 " fill-opacity="1" fill-rule="nonzero" />
  <path fill="#b3151d" d="M 357.496094 423.96875 L 496.339844 281.257812 C 487.730469 274.824219 477.050781 271.007812 465.5 271.007812 L 249.492188 271.007812 C 237.941406 271.007812 227.261719 274.824219 218.652344 281.257812 L 357.496094 423.96875 " fill-opacity="1" fill-rule="nonzero" />
  <g clip-path="url(#f30019ecae)">
    <path fill="#b3151d" d="M 337.472656 466.351562 C 323.617188 480.589844 323.617188 502.902344 337.472656 517.144531 L 507.054688 691.445312 C 513.375 682.878906 517.121094 672.304688 517.121094 660.863281 L 517.121094 322.632812 C 517.121094 311.191406 513.375 300.613281 507.054688 292.046875 L 337.472656 466.351562 " fill-opacity="1" fill-rule="nonzero" />
  </g>
  <g clip-path="url(#83d53df11a)">
    <path fill="#b3151d" d="M 496.339844 702.234375 L 357.496094 559.527344 L 218.652344 702.234375 C 227.261719 708.667969 237.941406 712.484375 249.492188 712.484375 L 465.5 712.484375 C 477.050781 712.484375 487.730469 708.667969 496.339844 702.234375 " fill-opacity="1" fill-rule="nonzero" />
  </g>
  <g clip-path="url(#96b0d70541)">
    <path fill="#b3151d" d="M 346.890625 548.625 L 326.578125 527.746094 C 317.148438 518.054688 311.957031 505.269531 311.957031 491.746094 C 311.957031 478.222656 317.148438 465.441406 326.578125 455.75 L 346.890625 434.871094 L 207.9375 292.046875 C 201.617188 300.613281 197.871094 311.191406 197.871094 322.632812 L 197.871094 660.863281 C 197.871094 672.304688 201.617188 682.878906 207.9375 691.445312 L 346.890625 548.625 " fill-opacity="1" fill-rule="nonzero" />
  </g>
</svg>